<?xml version="1.0" encoding="UTF-8" standalone="no"?>
<!-- Created with Inkscape (http://www.inkscape.org/) -->

<svg
   xmlns:dc="http://purl.org/dc/elements/1.1/"
   xmlns:cc="http://creativecommons.org/ns#"
   xmlns:rdf="http://www.w3.org/1999/02/22-rdf-syntax-ns#"
   xmlns:svg="http://www.w3.org/2000/svg"
   xmlns="http://www.w3.org/2000/svg"
   xmlns:sodipodi="http://sodipodi.sourceforge.net/DTD/sodipodi-0.dtd"
   xmlns:inkscape="http://www.inkscape.org/namespaces/inkscape"
   id="svg3287"
   version="1.1"
   inkscape:version="0.48.1 r9760"
   width="300"
   height="430"
   xml:space="preserve"
   sodipodi:docname="apatosaurus_02.svg"
   inkscape:export-filename="/Users/su_huynh/Documents/Art/Khủng Long Bé/apatosaurus_02.png"
   inkscape:export-xdpi="180"
   inkscape:export-ydpi="180"><metadata
     id="metadata3293"><rdf:RDF><cc:Work
         rdf:about=""><dc:format>image/svg+xml</dc:format><dc:type
           rdf:resource="http://purl.org/dc/dcmitype/StillImage" /><dc:title /></cc:Work></rdf:RDF></metadata><defs
     id="defs3291"><clipPath
       clipPathUnits="userSpaceOnUse"
       id="clipPath3301"><path
         d="M 0,414 558,414 558,0 0,0 0,414 z"
         id="path3303"
         inkscape:connector-curvature="0" /></clipPath><clipPath
       clipPathUnits="userSpaceOnUse"
       id="clipPath3301-5"><path
         d="M 0,414 558,414 558,0 0,0 0,414 z"
         id="path3303-9"
         inkscape:connector-curvature="0" /></clipPath></defs><sodipodi:namedview
     pagecolor="#ffffff"
     bordercolor="#666666"
     borderopacity="1"
     objecttolerance="10"
     gridtolerance="10"
     guidetolerance="10"
     inkscape:pageopacity="0"
     inkscape:pageshadow="2"
     inkscape:window-width="1085"
     inkscape:window-height="646"
     id="namedview3289"
     showgrid="false"
     inkscape:zoom="0.96543989"
     inkscape:cx="298.91955"
     inkscape:cy="187.15604"
     inkscape:window-x="59"
     inkscape:window-y="148"
     inkscape:window-maximized="0"
     inkscape:current-layer="g3295"
     showguides="true"
     inkscape:guide-bbox="true" /><g
     id="g3295"
     inkscape:groupmode="layer"
     inkscape:label="apatosaurus_02"
     transform="matrix(1.25,0,0,-1.25,0,430)"><path
   style="color:#000000;fill:#b6bcd5;fill-opacity:1;stroke:none;stroke-width:1px;marker:none;visibility:visible;display:inline;overflow:visible;enable-background:accumulate"
   d="m 170.64583,45.3192 c -9.97091,5.89668 -16.61773,2.281784 -19.8873,0.82864 C 105.85712,58.401944 38.305872,91.86725 4.089632,51.948304 3.609504,37.963176 31.760038,33.105688 42.206968,32.060992 54.687584,8.284752 118.73224,-8.302744 133.35713,24.603256 c 16.86683,-0.136512 27.7856,-0.161024 31.49849,3.271272 15.43825,-4.650808 43.78715,-4.93556 54.67985,1.872384 C 222.2279,48.025104 174.25881,45.3192 170.64583,45.3192 z"
   id="path4279"
   inkscape:connector-curvature="0"
   sodipodi:nodetypes="cccccccc" /><path
   style="color:#000000;fill:#ffa492;fill-opacity:1;fill-rule:nonzero;stroke:none;stroke-width:1.25px;marker:none;visibility:visible;display:inline;overflow:visible;enable-background:accumulate"
   d="m 203.01486,247.20902 c 4.87217,8.47476 8.5193,14.42797 8.5193,24.35926 0.61943,6.79467 -3.74138,12.04456 -3.74138,17.10345 1.58203,2.14317 1.1914,5.18951 1.06896,6.41379 -6.54988,4.762 -11.84605,9.23275 -16.30172,14.43103 5.34746,3.23402 1.20356,9.28422 -0.53448,13.62931 -9.23528,1.84976 -13.36621,11.42198 -21.37931,6.4138 -7.00228,0.66869 -12.92692,-1.38798 -18.70689,-2.67242 -10.25925,4.52289 -26.52404,0.67131 -25.38794,-10.68965 -20.44698,-14.33985 -18.33365,-52.33746 -6.41379,-63.87069 -0.68278,-4.33499 -1.82709,-8.35804 -1.14129,-12.49415 2.54466,-15.34701 13.3969,-29.83763 11.83094,-45.49723 -5.85508,3.53067 -12.66281,5.4084 -19.24137,4.81034 -11.81139,0.15434 -29.39677,-5.24931 -34.65479,-11.63008 0.41206,-0.40056 -6.97352,7.15914 -6.07139,22.22938 0.61863,10.33443 3.33528,19.71373 -0.26057,23.57817 -0.66647,0.71625 -7.91468,15.21128 -14.07304,17.61007 0.80525,-4.21709 2.43172,-6.49489 2.22078,-9.03199 -0.52011,-6.25594 -2.09268,-18.35015 -2.7361,-19.11893 -1.48506,-1.77439 -6.98234,-8.97261 -11.4497,-19.85317 -5.326952,-12.97414 -9.629792,-30.45022 -9.986344,-40.09827 -0.606336,-16.40704 -0.03469,-7.3284 0.674397,-13.77881 -0.744727,-2.58326 -8.629853,-24.81494 -7.357393,-37.27855 -1.313736,-3.53616 -2.609773,-13.38768 1.413179,-18.91708 0.026,-6.03537 0.762675,-9.514956 2.965412,-14.872197 C 27.823012,67.564114 23.893548,62.029499 25.078292,52.616563 25.743484,47.331539 49.31621,37.40174 54.354876,36.972614 c 4.100674,1.032143 13.093224,3.456285 18.193194,8.48973 3.03523,-5.9366 -5.28033,-21.593624 -1.21263,-25.691152 6.1153,-6.16012 31.18277,-13.659681 44.85137,-9.255385 8.98359,2.894696 16.1511,12.158515 15.57792,16.083499 0.75108,9.422232 -17.77604,33.475598 -14.94218,31.621046 9.20986,-6.02716 31.7493,18.123746 54.76195,18.237124 0.59045,-2.407108 0.93261,-5.873412 -6.89384,-17.843246 2.63774,-4.917262 8.26226,-18.878122 17.18221,-23.15436 2.11504,-1.013954 5.57097,-0.0649 7.84455,-0.330952 5.53577,-0.647785 12.7001,-1.482188 17.83917,1.787522 4.91256,3.1256 11.24278,6.985984 11.48382,10.993002 1.15419,6.962353 -0.74242,21.466354 -3.02344,26.154746 1.92078,4.416856 2.56206,6.579252 3.83406,12.712602 1.03221,4.97713 0.80883,15.78907 -1.30693,21.2754 -2.61038,9.6774 -8.03008,28.67075 -12.1499,34.45543 0.41107,7.36001 -13.7866,18.35377 -19.7012,23.09575 -1.01313,11.39861 -1.12671,2.7514 -4.14922,10.7844 -5.13015,13.63451 -11.33416,22.36078 -12.43204,27.3012 -1.12839,5.71305 -1.06896,11.53101 -1.06896,17.90517 9.64152,-1.76056 25.87517,0.13984 29.95964,4.9423 3.80296,4.47147 0.20747,13.51135 -2.55588,16.73125 0,0 -0.18761,0.40389 6.56832,3.94133 z"
   id="path3525"
   inkscape:connector-curvature="0"
   sodipodi:nodetypes="ccccccccccscccsscssssccccsccsscsccsssccscccsccscc" /><path
   style="color:#000000;fill:#7e4aa7;fill-opacity:1;fill-rule:nonzero;stroke:none;stroke-width:1.25px;marker:none;visibility:visible;display:inline;overflow:visible;enable-background:accumulate"
   d="m 106.51782,171.7923 c 4.80566,3.87769 9.55619,9.24392 13.18355,12.89058 0.45603,-3.01976 0.009,-5.92785 1.83143,-7.14073 2.41642,-1.60782 7.49126,-1.01319 10.91266,-1.35533 -4.97064,-6.22214 -13.7276,-8.20519 -20.06828,-10.10739 -3.83867,1.40084 -3.89371,2.56783 -5.85936,5.71287 z"
   id="path5060"
   inkscape:connector-curvature="0"
   sodipodi:nodetypes="ccsccc" /><path
   style="color:#000000;fill:#d8b8ff;fill-opacity:1;fill-rule:nonzero;stroke:none;stroke-width:1.25px;marker:none;visibility:visible;display:inline;overflow:visible;enable-background:accumulate"
   d="m 219.98734,45.749364 c -2.52656,0.884824 -4.09424,-2.930717 -5.85526,-3.796468 0.27078,-2.285915 0.79881,-2.722418 1.19831,-4.884026 1.56167,0.404799 5.20838,0.239341 6.48359,0.866247 1.62754,2.859706 -0.60639,5.332152 -1.82664,7.814247 z"
   id="path4171"
   inkscape:connector-curvature="0"
   sodipodi:nodetypes="ccccc" /><path
   style="color:#000000;fill:#8270a8;fill-opacity:1;fill-rule:nonzero;stroke:none;stroke-width:1.25px;marker:none;visibility:visible;display:inline;overflow:visible;enable-background:accumulate"
   d="m 215.59082,44.071475 c -0.48882,-1.549865 1.38118,-4.488239 0.67133,-6.66973 -0.43812,-0.03626 -0.81191,-0.143893 -1.16973,-0.230788 -0.60722,1.755297 -0.16661,2.596314 -0.99661,4.284638 0.44327,0.973144 0.64905,2.351069 1.49501,2.61588 z"
   id="path4146"
   inkscape:connector-curvature="0"
   sodipodi:nodetypes="ccccc" /><path
   style="color:#000000;fill:#d8b8ff;fill-opacity:1;fill-rule:nonzero;stroke:none;stroke-width:1.25px;marker:none;visibility:visible;display:inline;overflow:visible;enable-background:accumulate"
   d="m 213.75558,40.811705 c 1.99178,-2.539556 2.74019,-4.431125 1.52815,-7.390241 -1.74067,-1.713363 -5.20032,-2.256762 -7.50779,-1.588203 -2.14952,0.540589 -3.73527,2.063995 -5.18015,3.276268 -0.55704,3.760068 3.02791,5.267001 5.05306,6.979802 2.04634,0.313089 4.32912,-0.138062 6.10673,-1.277626 z"
   id="path4076"
   inkscape:connector-curvature="0"
   sodipodi:nodetypes="cccccc" /><path
   style="color:#000000;fill:#a85974;fill-opacity:1;fill-rule:nonzero;stroke:none;stroke-width:1.953125px;marker:none;visibility:visible;display:inline;overflow:visible;enable-background:accumulate"
   d="M 83.225,153.625 82.35,152.45 c -3.84406,-6.71213 -9.98469,-12.20627 -13.475,-18.15 -2.77958,-4.73339 -4.3529,-12.13036 -2.35,-16.8 -0.77824,-1.26157 -0.46856,-4.79702 -0.125,-6.2 -1.28102,1.54647 -2.39114,2.98288 -3.4,7.25 -1.02704,4.34402 3.04782,18.39494 0.05,15.975 C 61.29247,121.40863 48.55688,104.86553 57.85,96.9 57.13078,87.80676 49.425,83.775392 49.425,74.4 54.403872,60.022424 42.226704,51.708544 40.325,42.2 47.729616,40.89328 65.59113,41.723776 72.75,44.75 74.59991,45.532 66.40545,23.818928 79.275,12.775 82.03072,10.410192 89.72062,10.204832 94.25,8.95 87.70646,14.984576 81.36562,20.735808 81.575,27.025 c 0.2368,7.112664 -0.56362,17.835856 1.675,22.45 2.27258,12.265088 -7.98899,19.313296 -10.775,28.6 -0.13699,2.122808 -2.56602,17.38579 -0.2,24.3 1.72677,5.04615 -0.76482,9.867 -2.1,11.75 -0.62627,6.4541 -0.39151,12.98488 0.15,18.4 3.19766,7.43758 12.11162,13.21621 12.9,21.1 z"
   id="path3236"
   inkscape:connector-curvature="0" /><path
   style="color:#000000;fill:#d8b8ff;fill-opacity:1;fill-rule:nonzero;stroke:none;stroke-width:1.5625px;marker:none;visibility:visible;display:inline;overflow:visible;enable-background:accumulate"
   d="m 32.781216,45.629936 c 0.973996,3.034184 4.36036,4.187 7.35416,3.521712 2.848088,-1.908272 3.107392,-4.847744 3.107392,-8.38996 -2.63024,-0.495712 -6.02472,-1.037808 -8.079218,0.103584 -1.76352,1.302864 -2.213828,3.079616 -2.382334,4.764664 z"
   id="path3834"
   inkscape:connector-curvature="0" /><path
   style="color:#000000;fill:#a85974;fill-opacity:1;fill-rule:nonzero;stroke:none;stroke-width:1.953125px;marker:none;visibility:visible;display:inline;overflow:visible;enable-background:accumulate"
   d="m 48.680704,212.78172 c -0.303712,-4.09468 -2.920872,-9.8411 -4.032704,-15.7721 -2.835264,-15.12449 -5.705496,-28.62819 -5.144568,-33.18183 3.92408,4.38845 4.058072,-2.03381 4.28196,-4.35341 -2.45884,-3.77224 -5.50936,-5.21907 -8.49068,-8.45361 -1.527034,6.41386 -1.32168,10.04012 -1.62012,13.54459 3.705872,12.06415 7.799632,35.71342 15.006112,48.21636 z"
   id="path3184"
   inkscape:connector-curvature="0"
   sodipodi:nodetypes="csccccc" /><path
   style="color:#000000;fill:#267fff;fill-opacity:1;fill-rule:nonzero;stroke:none;stroke-width:1.25px;marker:none;visibility:visible;display:inline;overflow:visible;enable-background:accumulate"
   d="m 117.69637,180.96537 c 1.08582,-9.37132 1.20486,-4.27313 9.37811,-7.27837 -4.95719,-2.8892 -10.7587,-3.58441 -15.39462,-3.85915 -2.46476,3.15084 -1.22475,-0.31809 -2.67302,2.68762 2.58095,3.95216 6.45126,3.89804 8.68953,8.4499 z"
   id="path4209"
   inkscape:connector-curvature="0"
   sodipodi:nodetypes="ccccc" /><path
   style="color:#000000;fill:#a85974;fill-opacity:1;fill-rule:nonzero;stroke:none;stroke-width:1.5625px;marker:none;visibility:visible;display:inline;overflow:visible;enable-background:accumulate"
   d="m 131.9979,187.69165 c -4.00611,-10.26352 -13.87888,-12.72983 -14.66453,-9.109 -0.71389,1.98545 4.94545,6.25463 5.46811,6.5813 3.80959,0.84428 4.62084,2.16443 7.2575,4.42441 1.1642,-1.33704 1.76686,-0.004 1.93892,-1.89671 z"
   id="path5133"
   inkscape:connector-curvature="0"
   sodipodi:nodetypes="ccccc" /><path
   style="color:#000000;fill:#6b445e;fill-opacity:1;fill-rule:nonzero;stroke:none;stroke-width:1.25px;marker:none;visibility:visible;display:inline;overflow:visible;enable-background:accumulate"
   d="m 131.38107,186.81828 c -5.09514,-9.09029 -11.53768,-9.35409 -11.10985,-7.81568 1.36133,1.03522 3.15386,1.18935 4.5438,3.06266 4.8531,2.77679 1.41984,0.57457 2.76901,3.28138 2.00923,2.38943 2.53249,3.45054 3.79704,1.47164 z"
   id="path5125"
   inkscape:connector-curvature="0"
   sodipodi:nodetypes="ccccc" /><path
   style="color:#000000;fill:#ffffff;stroke:none;stroke-width:1px;marker:none;visibility:visible;display:inline;overflow:visible;enable-background:accumulate"
   d="m 145.15866,316.59922 c -2.50152,1.74212 -4.37092,2.07865 -7.55872,2.07865 -8.6606,-2.7213 -12.36088,-15.6014 -13.36088,-20.07547 0.47432,-6.6287 2.46733,-14.10353 5.60887,-19.7583 1.38573,1.38736 3.08398,1.03094 4.25609,1.28426 -6.67672,12.55482 -1.90385,31.58426 11.05464,36.47086 z"
   id="path3939"
   inkscape:connector-curvature="0"
   sodipodi:nodetypes="cccccc" /><path
   style="color:#000000;fill:#d58dc2;fill-opacity:1;stroke:none;stroke-width:1px;marker:none;visibility:visible;display:inline;overflow:visible;enable-background:accumulate"
   d="m 130.86294,298.91666 c 0.91345,7.71363 8.13264,15.52697 12.68211,17.04346 -0.22397,0.40022 -0.64759,0.46602 -1.24706,0.34122 -4.89001,-1.14814 -10.94654,-7.83228 -12.37737,-16.8534 -1.07321,-6.76637 0.72128,-16.0502 3.16783,-19.09873 0.46497,0.0991 0.88418,0.43308 1.38951,0.48922 -3.53993,5.83891 -4.07591,14.18618 -3.61502,18.07823 z"
   id="path4330"
   inkscape:connector-curvature="0"
   sodipodi:nodetypes="sccsccs" /><path
   style="color:#000000;fill:#904880;fill-opacity:1;stroke:none;stroke-width:1px;marker:none;visibility:visible;display:inline;overflow:visible;enable-background:accumulate"
   d="m 143.87899,280.35966 c -0.74043,-1.49323 -2.2941,-2.38381 -3.6,-3.2 -1.61901,2.45706 -3.4905,2.6 -6.4,2.6 -3.65234,4.74333 -4.75862,15.51116 -3.08629,21.57452 2.48267,9.00131 6.67955,12.82738 12.48629,15.02548 3.09721,-0.49256 4.17126,-3.66826 4.8,-4.8 -6.96877,-2.80345 -10.6,-9.24744 -10.6,-16.4 0.21502,-6.41153 2.3027,-10.7027 6.4,-14.8 z"
   id="path3958"
   inkscape:connector-curvature="0"
   sodipodi:nodetypes="cccscccc" /><path
   style="color:#000000;fill:#6a0078;fill-opacity:1;stroke:none;stroke-width:1px;marker:none;visibility:visible;display:inline;overflow:visible;enable-background:accumulate"
   d="m 137.07146,311.24883 c 0.67085,-0.9584 1.70236,-1.73848 2.02952,-2.82902 -1.06789,0.86555 -1.74703,1.51573 -2.95203,1.78351 0.46475,-0.48991 0.76434,-0.76433 1.16851,-1.16851 -0.58496,-0.0443 -1.10326,0.20094 -1.59901,0.24601 1.22471,-0.45178 2.54061,-1.34667 3.19802,-2.39852 -0.39448,0.0941 -0.68274,0.3588 -0.9225,0.492 -0.0192,-0.21975 0.061,-0.73105 0.0615,-0.738 -0.90059,0.49791 -2.10729,0.95022 -3.01355,1.35301 0.79389,-0.96112 2.01554,-1.32164 2.76752,-1.90652 -1.32236,-0.34757 -2.7564,0.2628 -3.62852,0.55351 0.69508,-0.47044 1.39768,-0.81749 2.02952,-1.16851 -1.04564,-0.0149 -2.00545,0.0837 -3.01353,0.1845 0.44403,-0.0138 0.59622,-0.20355 0.86101,-0.43051 -0.38121,0.0777 -0.73016,-0.10834 -0.98401,-0.1845 1.02451,-0.82788 2.6586,-1.16675 3.56703,-1.41451 -0.74247,-0.023 -1.47651,-0.0122 -2.15252,0.123 0.52012,-0.45589 1.57335,-0.96349 1.96802,-1.107 -1.27274,-0.0897 -3.02937,0.12617 -3.93604,0.3075 1.12594,-0.31826 1.81703,-0.86436 3.01353,-0.98401 -1.15629,0.056 -2.46776,-0.0192 -3.50553,-0.123 1.21328,-0.16365 2.50479,-0.40256 3.56703,-0.61501 -1.04492,0.004 -1.95195,-0.15214 -2.89052,-0.246 1.09337,-0.0575 1.91421,-0.39292 2.82902,-0.7995 -1.25719,-0.075 -2.69061,0.22551 -3.75153,-0.24601 1.17964,-0.28921 2.30404,-0.60767 3.44403,-0.861 -1.1049,-0.3074 -2.28389,-0.47887 -3.38253,-0.369 0.41225,-0.11107 0.7707,-0.1576 1.16851,-0.24601 -0.32484,-0.63759 -0.98462,-0.61506 -1.66051,-0.6765 1.1087,-0.47572 2.46738,-0.6367 3.38252,-0.55351 -0.99214,-0.85312 -2.5377,-1.35301 -3.62853,-1.35301 0.99143,0.0636 1.89506,-0.123 2.76753,-0.123 -0.15573,-0.22845 -0.32651,-0.42623 -0.50826,-0.59779 -0.17472,-0.16492 1.2574,0.0509 1.07884,-0.0877 -0.77382,-0.60085 -2.60104,-0.80436 -3.0921,-0.91349 1.07368,-0.0507 2.35914,-0.161 3.13652,0.1845 -1.0666,-0.52061 -2.03999,-1.3182 -3.13652,-1.53751 0.37945,-0.18933 0.74254,-0.0615 1.0455,-0.0615 -0.27098,-0.45357 -0.45809,-0.6546 -0.9225,-0.86101 1.17498,-0.28812 2.11518,-0.28919 3.07502,0.0308 -0.3456,-0.151 -0.68262,-0.55962 -0.738,-0.61501 0.24211,-0.0482 0.492,-0.041 0.738,-0.0615 -0.50522,-0.55166 -2.11103,-0.89175 -3.19802,-1.26075 0.82182,-0.27675 1.68845,0 2.15251,0 -0.59765,-0.51494 -1.16937,-0.92316 -1.66051,-1.29151 0.59574,-0.0245 2.7015,0.40535 3.25952,0.46127 -0.12062,-0.2214 -2.68361,-1.06569 -3.13652,-1.29153 0.87971,-0.17638 2.71462,0.16437 3.38253,0.46126 -0.37063,-0.43 -1.58836,-0.87357 -2.06027,-1.16852 0.40851,-0.0668 1.92529,0.21136 2.30627,0.246 -0.097,-0.23499 -1.89446,-0.96516 -3.08592,-1.27312 1.10426,-0.33784 2.22802,-0.0483 1.8972,-0.29012 -0.42154,-0.30812 -0.90814,-0.53036 -1.4558,-0.77377 0.99666,-0.049 1.88193,-0.0562 2.52152,0.49201 -0.40739,-0.62673 -0.94701,-0.96089 -1.47601,-1.29152 0.83521,-0.0936 1.78502,0.13068 2.21402,0.369 -0.83473,-0.68408 -1.75832,-1.5738 -2.27552,-2.09101 0.72003,-0.0481 1.63121,0.4122 2.15251,0.73801 -0.0832,-0.244 -0.56834,-0.63624 -0.70345,-0.81816 -0.13268,-0.17864 1.14021,0.41723 1.03636,0.23609 -0.29182,-0.50897 -2.01226,-1.12973 -2.23942,-1.32445 1.12969,0.3894 2.26467,0.35454 3.01352,1.35301 -0.50411,-0.47469 -0.79075,-0.90849 -1.107,-1.41451 0.63184,0.43913 1.84197,0.47083 2.21401,0.5535 -0.29907,-0.3484 -0.48088,-0.69337 -0.6765,-1.0455 0.48689,0.0306 0.69021,0.0919 1.10701,0.1845 -0.2889,-1.56909 2.24406,-1.179 3.01352,-0.92251 -2.8988,5.00035 -4.92004,10.85589 -4.92004,16.66663 1.42826,6.12039 4.75009,12.22618 10.08608,15.19061 -0.58064,2.21341 -2.19224,3.04825 -4.30504,3.25953 0.66666,-0.41709 1.12794,-1.07224 1.59901,-1.47602 -0.79115,0.37707 -1.42793,0.75299 -2.27551,0.92251 0.71149,-0.43634 1.26629,-1.25184 1.72201,-1.78351 -0.91557,0.36537 -2.15376,1.00478 -2.89052,1.16851 0.85605,-0.49902 1.10381,-1.1142 1.59901,-1.90652 -1.00056,-0.0933 -2.18422,0.59472 -2.82902,0.73801 1.23658,-0.13962 1.64278,-0.85187 2.02951,-1.72201 -0.96066,0.39055 -1.82221,0.91794 -2.76752,1.107 0.53712,-0.4334 1.09663,-1.03512 1.53751,-1.47601 -0.40271,0.28731 -0.77816,0.32382 -1.23,0.36901 0.46764,-0.45498 0.72452,-0.94746 0.984,-1.41452 -1.14218,0.47615 -2.08261,0.73959 -3.01352,1.53752 z"
   id="path5102"
   inkscape:connector-curvature="0"
   sodipodi:nodetypes="ccccccccccccccccccccccccccccccccsscccccccccccccccccsccccccsscccccccccccccccccccccc" /><path
   style="color:#000000;fill:#342c61;fill-opacity:1;stroke:none;stroke-width:1px;marker:none;visibility:visible;display:inline;overflow:visible;enable-background:accumulate"
   d="m 147.06638,311.63403 c -5.89147,-1.04367 -10.44372,-9.58295 -9.95115,-14.46585 0.55707,-5.52217 1.9851,-13.24819 5.51544,-17.36692 -1.16719,-0.005 -0.95901,-0.34251 -1.86686,0.2249 -4.08109,4.81056 -5.61491,10.54593 -4.89171,16.96445 0.90752,8.05427 5.43966,13.88044 10.41152,15.51317 0.22553,-0.7327 0.21643,-0.38431 0.78276,-0.86975 z"
   id="path5100"
   inkscape:connector-curvature="0"
   sodipodi:nodetypes="csccscc" /><path
   style="opacity:0.98999999;color:#000000;fill:#002232;fill-opacity:1;fill-rule:nonzero;stroke:none;stroke-width:1px;marker:none;visibility:visible;display:inline;overflow:visible;enable-background:accumulate"
   d="m 147.61525,312.06399 c -6.81618,-0.34788 -10.95468,-9.55776 -11.3381,-15.68436 -0.55345,-8.84349 2.31583,-15.10063 7.0788,-17.37006 5.29615,2.54245 6.6279,11.58827 8.51588,15.83625 -1.77958,5.16925 -0.2418,13.20338 -4.25658,17.21817 z"
   id="path3804"
   inkscape:connector-curvature="0"
   sodipodi:nodetypes="csccc" /><path
   style="color:#000000;fill:#a85974;fill-opacity:1;fill-rule:nonzero;stroke:none;stroke-width:1.5625px;marker:none;visibility:visible;display:inline;overflow:visible;enable-background:accumulate"
   d="m 209.69589,261.30798 c -1.80014,-2.52021 -4.50363,-6.68604 -8.22908,-8.39313 -5.95933,-2.7307 -19.6853,-5.9341 -28.74193,-3.47619 -6.1194,1.66076 -9.12222,7.28624 -11.70798,9.49407 -4.6777,3.99403 -8.02664,1.07897 -20.54208,3.80314 -5.174,1.12619 -5.97396,4.40098 -9.64756,5.62551 -2.19048,-2.69985 -0.28892,-5.09437 0.26724,-6.94828 0.331,1.19542 0.9883,3.37836 1.06897,3.74138 5.683,-7.49494 13.28722,-9.69174 25.63475,-12.84508 2.96384,-0.75691 1.05159,-7.88722 9.79766,-9.78661 9.93797,-2.15823 24.67181,-3.01717 34.39586,4.27587 2.8273,3.88592 7.26675,9.69787 7.70415,14.50932 z"
   id="path3777"
   inkscape:connector-curvature="0"
   sodipodi:nodetypes="csssscccsscc" /><path
   style="color:#000000;fill:#a85974;fill-opacity:1;fill-rule:nonzero;stroke:none;stroke-width:1.5625px;marker:none;visibility:visible;display:inline;overflow:visible;enable-background:accumulate"
   d="m 173.98674,295.48638 c 2.34021,0.77539 4.19852,0.76202 6.14656,0.0668 1.48183,-0.52883 1.90105,-2.32317 2.47198,-3.60776 0.52851,-2.16185 0.26217,-4.6478 -0.6013,-6.54741 -1.85319,-1.03207 -3.66438,-1.13577 -5.41163,-1.13577 -1.11333,0.25482 -2.31378,1.59294 -2.87285,2.33836 -0.19785,2.11271 -0.54521,4.217 0.40086,5.47845 0.0615,1.29942 0.1359,2.59876 -0.13362,3.40732 z"
   id="path3495"
   inkscape:connector-curvature="0"
   sodipodi:nodetypes="cscccccc" /><path
   style="color:#000000;fill:#6b445e;fill-opacity:1;fill-rule:nonzero;stroke:none;stroke-width:1.25px;marker:none;visibility:visible;display:inline;overflow:visible;enable-background:accumulate"
   d="m 182.20442,289.67388 c -0.003,-1.40688 0.0218,-2.74856 -0.66316,-3.55523 -1.24968,-1.47184 -3.80246,-1.62923 -5.68383,-0.45339 -2.08697,1.35646 -1.15134,4.59824 0.46768,5.8125 0.0685,1.50961 -0.71579,2.57012 -1.53664,3.27371 4.23335,2.51952 7.42487,-0.93991 7.41595,-5.07759 z"
   id="path3475"
   inkscape:connector-curvature="0"
   sodipodi:nodetypes="sscccs" /><path
   style="color:#000000;fill:#a85974;fill-opacity:1;fill-rule:nonzero;stroke:none;stroke-width:1.953125px;marker:none;visibility:visible;display:inline;overflow:visible;enable-background:accumulate"
   d="M 126.69306,102.87012 C 121.87549,87.30614 112.1333,77.381128 109.98327,68.244 c -1.07892,-4.58516 -8.69824,-4.178848 -6.54161,-6.021624 1.99741,0.33944 3.83604,-0.201408 5.56639,-0.585936 -0.99531,-3.675304 -0.48748,-4.396904 0.29297,-6.738256 7.2622,-1.633096 5.52694,-6.554584 12.89058,-6.738248 -1.60823,2.501088 -6.37335,10.988888 -7.03123,12.30464 -0.54165,3.066776 9.99149,22.640336 13.53283,39.035724 2.04446,8.09263 0.71036,12.12656 -2.00014,3.36982 z"
   id="path3778"
   inkscape:connector-curvature="0"
   sodipodi:nodetypes="ssccccccs" /><path
   style="color:#000000;fill:#a85974;fill-opacity:1;fill-rule:nonzero;stroke:none;stroke-width:1.5625px;marker:none;visibility:visible;display:inline;overflow:visible;enable-background:accumulate"
   d="m 128.5229,104.66878 c 5.14642,-6.55034 12.03664,-8.06786 20.17215,-7.32827 20.12453,-14.019945 28.20469,16.87312 38.62229,19.18815 -0.0958,-3.23684 3.24339,-12.195 1.25438,-17.74128 -0.48557,-1.35401 3.81122,1.53179 4.97692,1.44839 2.58924,-0.18525 3.28093,-13.34323 -1.92653,-17.131416 -1.25589,-0.913604 -1.87032,-9.800025 -5.54749,-10.420814 -1.32003,-0.22285 3.40526,-11.69013 2.49449,-15.409862 -2.16386,-8.837587 -6.42961,-21.576775 -9.97265,-19.194448 -6.89182,4.634029 -10.25397,11.103175 -13.4842,19.419074 -0.53983,1.389726 6.73044,16.092806 6.45757,17.904579 -0.27564,1.830075 -8.92347,-10.046254 -9.01477,-9.6267 6.49173,8.671187 -13.89907,16.128439 -22.22408,19.458437 -4.39828,3.83459 -8.4222,6.91132 -13.28409,8.85608 2.21561,4.0352 2.07953,9.25952 1.47601,10.57808 z"
   id="path5174"
   inkscape:connector-curvature="0"
   sodipodi:nodetypes="cccsssssssscccc" /><path
   style="color:#000000;fill:#d8b8ff;fill-opacity:1;fill-rule:nonzero;stroke:none;stroke-width:1.25px;marker:none;visibility:visible;display:inline;overflow:visible;enable-background:accumulate"
   d="m 181.29783,43.96922 c -8.12765,-3.020344 -1.79456,-10.58756 4.98045,-9.082 2.49213,2.800144 1.39629,5.22656 1.09863,8.203096 -2.03847,0.266704 -4.39267,1.441032 -6.07908,0.878904 z"
   id="path3961"
   inkscape:connector-curvature="0" /><path
   style="color:#000000;fill:#6b445e;fill-opacity:1;fill-rule:nonzero;stroke:none;stroke-width:1.25px;marker:none;visibility:visible;display:inline;overflow:visible;enable-background:accumulate"
   d="m 129.52674,103.10518 c 3.36356,-7.19235 6.65789,-9.92085 12.26707,-10.9828 9.49393,-1.79743 15.06908,-13.260876 32.42678,3.54214 2.38128,1.68889 5.8963,0.87691 7.45367,3.22025 3.89166,5.85569 3.42352,9.71543 5.03837,8.81829 -0.10074,-1.83148 0.69192,-2.50649 0.45361,-6.07038 -0.25529,-3.81781 -2.04247,-6.92689 0.60977,-5.97354 6.79952,2.44408 0.42251,-12.79105 -7.23333,-18.008421 -1.40401,-0.956821 -0.0998,-14.115682 -0.56272,-15.588944 -1.61965,-5.154928 -3.1937,-16.093796 -6.64586,-16.135279 -1.99776,-0.02401 -7.74877,6.262303 -7.52207,13.29465 0.19669,6.101255 6.27603,12.764074 6.10078,16.354617 -0.0811,1.661263 -8.99764,-9.783265 -8.43279,-8.332219 -11.47553,-8.661912 -31.5018,-11.507392 -42.81695,-9.729248 -5.94654,0.93448 -3.71777,4.981872 -6.17435,10.109824 6.26069,14.95268 13.44952,18.00752 15.03802,35.48106 z"
   id="path3461"
   inkscape:connector-curvature="0"
   sodipodi:nodetypes="cscscssssssscscc" /><path
   style="color:#000000;fill:#a85974;fill-opacity:1;fill-rule:nonzero;stroke:none;stroke-width:1.5625px;marker:none;visibility:visible;display:inline;overflow:visible;enable-background:accumulate"
   d="m 200.8445,296.95621 c 1.68674,-2.18036 3.15852,-5.64727 4.31664,-9.01502 0.32345,-0.94057 1.41628,-1.36307 1.51682,-2.36845 -0.13006,1.84048 1.34798,1.66188 1.11482,3.09899 -1.40438,-0.0735 -1.4676,1.52631 -2.97888,5.05991 -0.65063,1.52127 -2.23344,2.35659 -3.9694,3.22457 z"
   id="path3750"
   inkscape:connector-curvature="0"
   sodipodi:nodetypes="csccsc" /><path
   style="color:#000000;fill:#6b445e;fill-opacity:1;fill-rule:nonzero;stroke:none;stroke-width:1.25px;marker:none;visibility:visible;display:inline;overflow:visible;enable-background:accumulate"
   d="m 199.55611,249.03122 c -8.66706,-2.2807 -10.24823,-3.08015 -19.92881,-3.11255 -9.15658,-0.0306 -14.19376,0.66695 -18.31552,7.66059 -3.28614,5.57578 -12.51049,4.85712 -17.31141,5.49352 -5.50506,0.72972 -7.67329,3.23827 -11.30242,6.34895 5.61639,-11.948 16.85945,-9.84659 22.79618,-12.02587 6.7537,-2.47916 7.23987,-12.06375 17.30037,-12.94773 11.48181,-1.00888 17.0729,3.63641 27.07274,4.63639 3.60352,1.98294 6.38252,5.14431 7.98014,9.4027 1.15499,2.75396 -5.96028,-4.84262 -8.29127,-5.456 z"
   id="path3785"
   inkscape:connector-curvature="0"
   sodipodi:nodetypes="sssscssccs" /><path
   style="color:#000000;fill:#a85974;fill-opacity:1;fill-rule:nonzero;stroke:none;stroke-width:1.25px;marker:none;visibility:visible;display:inline;overflow:visible;enable-background:accumulate"
   d="m 184.74321,317.73423 c 0.5552,-0.63678 0.53353,0.3381 -0.80173,2.67241 -1.47096,2.57156 -3.01748,5.17173 -6.84613,6.69461 -1.77855,0.70744 -3.49613,1.78791 -5.51377,2.3916 -2.3551,-0.86525 -2.36472,-0.17107 -5.67889,-0.70151 4.27515,-0.4875 10.01509,-2.2529 13.12604,-4.66996 2.64546,-2.0554 3.80723,-4.19967 5.71448,-6.38715 z"
   id="path3806"
   inkscape:connector-curvature="0"
   sodipodi:nodetypes="sssccss" /><path
   style="color:#000000;fill:#a85974;fill-opacity:1;fill-rule:nonzero;stroke:none;stroke-width:1.5625px;marker:none;visibility:visible;display:inline;overflow:visible;enable-background:accumulate"
   d="m 152.21089,325.82604 c -1.23187,0.0613 -1.32151,0.0219 -1.48363,-0.8737 1.74833,-1.33621 3.98481,-0.77681 5.07673,-0.99268 1.35559,-1.09777 4.41989,-5.36341 2.63731,-8.10084 -0.50128,-0.8155 -3.68773,-3.54618 -4.54683,-3.59916 -1.99455,0 -2.70282,-0.0297 -4.19052,2.45 -1.57892,2.63177 -3.21557,3.72402 -6.625,4.725 -2.93089,0.8605 -8.24843,-0.53857 -11.34502,-0.77002 -1.86156,-0.13913 -2.84299,2.38426 -3.34502,4.71006 -0.47409,-1.22995 -2.05004,-2.53243 -2.04004,-4.51504 1.32425,-1.32424 2.01598,-3.06793 4.04105,-3.28426 -0.41647,-0.47324 -1.60974,-2.20551 -2.61316,-3.91641 -0.832,-1.41863 -3.40538,-10.01422 -5.04874,-10.94734 -1.10009,-0.62465 -0.49032,-2.14612 0.2114,-2.07337 0.11405,0.0118 0.63113,-6.61772 2.25851,-8.19285 -0.74775,4.45396 -0.99961,8.30631 -0.89063,8.37269 1.81693,9.86294 7.77733,16.90273 9.79665,17.64154 0.79799,0.49874 3.74757,1.4987 7.825,0.425 3.97522,-0.88338 4.73253,-5.42266 7.575,-6.9 3.9029,-2.02847 5.44884,-1.6013 7.58406,1.06466 1.58602,1.98026 2.68984,3.87755 3.00732,6.00905 0,2.77322 -0.69878,5.3175 -2.14138,7.55129 -0.5239,1.11117 -3.93216,0.19676 -5.74306,1.21638 z"
   id="path3860"
   inkscape:connector-curvature="0"
   sodipodi:nodetypes="cccccssscccsssccccssccc" /><path
   style="color:#000000;fill:#6b445e;fill-opacity:1;fill-rule:nonzero;stroke:none;stroke-width:1.25px;marker:none;visibility:visible;display:inline;overflow:visible;enable-background:accumulate"
   d="m 127.1889,321.20479 c -1.01151,-1.30569 -0.94917,-3.29303 -0.63491,-5.92013 1.30451,-0.57978 2.08955,-1.33807 3.69288,-1.03261 -0.41252,-1.92366 -0.9278,-2.53728 -1.03545,-2.88395 1.87984,2.90785 3.08395,3.51896 3.52308,3.73956 1.56436,0.7859 2.85704,1.08795 4.31949,1.402 2.74886,0.59031 5.47751,-0.39531 7.325,-1.55 1.61343,-2.13442 2.42823,-4.9344 5.3,-7.05 2.87176,-2.11559 7.04012,1.57892 8.075,2.2 1.14461,0.68694 2.90824,3.11427 2.23034,6.30534 -0.54572,-1.1823 -0.96957,-2.91931 -2.89579,-3.96378 -0.93821,-0.92658 -7.5086,-4.1593 -9.58256,0.0941 -2.03458,4.17266 -4.19368,4.98623 -7.08735,5.51327 -1.62168,0.29537 -6.59406,-0.50858 -9.92491,-0.93424 -1.35336,-0.17295 -3.90586,2.10494 -3.30482,4.08043 z"
   id="path3906"
   inkscape:connector-curvature="0"
   sodipodi:nodetypes="ccccsscssccsssc" /><path
   style="color:#000000;fill:#a85974;fill-opacity:1;fill-rule:nonzero;stroke:none;stroke-width:1.5625px;marker:none;visibility:visible;display:inline;overflow:visible;enable-background:accumulate"
   d="m 191.22382,308.58121 c -1.35028,1.68101 -1.8249,3.96282 -3.00647,5.1444 1.04587,0.15135 1.2767,-0.76453 1.87069,-1.13578 1.08002,-0.95764 1.53665,-2.15703 2.6056,-3.07327"
   id="path3914"
   inkscape:connector-curvature="0"
   sodipodi:nodetypes="cccc" /><path
   style="color:#000000;fill:#a85974;fill-opacity:1;fill-rule:nonzero;stroke:none;stroke-width:1.5625px;marker:none;visibility:visible;display:inline;overflow:visible;enable-background:accumulate"
   d="m 120.87899,259.55966 c 4.15546,-6.05904 6.40756,-2.10472 7.2,-2.6 1.65511,-10.37269 7.49239,-15.99104 18.62063,-18.15768 5.38725,-1.04888 8.65221,-5.10993 12.12727,-9.16416 2.88303,-1.69679 9.00321,-6.14768 15.60026,-5.57533 6.40269,0.55548 13.88032,1.29573 16.05844,1.53075 4.40208,0.47501 9.96896,4.06556 9.30757,10.06386 4.8983,-9.92524 -10.41221,-14.53102 -13.63699,-14.54572 -2.62144,-0.0119 -12.42063,-2.13846 -15.22171,-1.4044 -2.21177,0.57962 0.53754,-22.00911 4.31431,-27.45263 -5.93504,-3.02657 -23.62407,11.41731 -27.92322,12.72179 -6.53655,1.98338 -9.5984,24.57873 -10.96534,24.86294 -12.18515,2.53352 -12.18635,13.72878 -16.68122,20.92058 -11.37986,9.2696 -7.00573,30.74271 -6.1,43.3 -2.40937,-12.98304 2.44637,-27.42295 7.3,-34.5 z"
   id="path3942"
   inkscape:connector-curvature="0"
   sodipodi:nodetypes="scscsscsscssccs" /><path
   style="color:#000000;fill:#6b445e;fill-opacity:1;fill-rule:nonzero;stroke:none;stroke-width:1.25px;marker:none;visibility:visible;display:inline;overflow:visible;enable-background:accumulate"
   d="m 152.37185,235.09622 c -14.80208,2.26756 -24.70084,8.07012 -24.70084,20.09117 -1.0172,1.78343 -3.45186,-3.39527 -3.8527,-5.01572 -1.43187,-5.78845 4.22116,-13.89497 7.76656,-16.55402 12.95669,-2.31308 10.75671,-22.25616 20.7,-25.57059 8.02083,-0.48364 11.33067,-7.04736 19.13446,-7.82773 -2.02148,1.25352 -2.76216,3.23238 -3.47899,4.52269 1.04621,-0.20732 1.31493,0.54788 2.08739,0.86975 -1.75353,7.26637 -0.39667,11.03095 0.3479,16.01572 -14.69213,2.34993 -14.75041,10.77124 -18.00378,13.46873 z"
   id="path5104"
   inkscape:connector-curvature="0"
   sodipodi:nodetypes="ccsccccccc" /><path
   style="color:#000000;fill:#c66f87;fill-opacity:1;stroke:#000000;stroke-width:0.80000001px;stroke-linecap:butt;stroke-linejoin:miter;stroke-miterlimit:4;stroke-opacity:1;stroke-dasharray:none;stroke-dashoffset:0;marker:none;visibility:visible;display:inline;overflow:visible;enable-background:accumulate"
   d="m 150.71933,243.53278 c 5.40906,-5.34884 14.47757,-8.309 19.13445,-13.74203 8.51881,0.014 21.25651,-0.12773 25.91849,6.08824 -2.02895,1.90812 -2.44422,4.99773 -2.95714,7.30588 -9.2772,0.56211 -17.91088,-3.22476 -26.84793,-1.23874 -4.93757,1.34453 -6.72858,6.71118 -9.50754,10.28412 -9.52032,2.28403 -17.62944,6.21467 -24.00504,10.87185 -1.88063,-15.05083 9.756,-14.25138 18.26471,-19.56932 z"
   id="path5123"
   inkscape:connector-curvature="0"
   sodipodi:nodetypes="cccccccc" /><path
   style="color:#000000;fill:#ff7490;fill-opacity:1;fill-rule:nonzero;stroke:none;stroke-width:1px;marker:none;visibility:visible;display:inline;overflow:visible;enable-background:accumulate"
   d="m 178.58788,231.26475 c 2.92164,0.10911 6.78514,1.58569 8.93551,2.92967 1.08436,2.32251 -0.90633,4.9574 -1.46483,7.47068 -7.3497,-2.09689 -14.31754,-1.14773 -21.09368,0.43946 3.0329,-4.09349 8.10211,-9.73563 13.623,-10.83981 z"
   id="path5110"
   inkscape:connector-curvature="0"
   sodipodi:nodetypes="ccccc" /><path
   sodipodi:nodetypes="csscsscc"
   inkscape:connector-curvature="0"
   id="path3346"
   d="m 72.06685,183.52095 c -6.31065,5.74561 -10.26006,11.13337 -10.70041,24.43601 -0.21155,6.3908 5.39337,19.00143 4.6225,25.65294 -0.56148,4.84478 -4.05833,11.34357 -8.6568,15.28512 0.8158,-2.4135 6.11778,-9.28959 7.10628,-12.49226 2.06083,-6.67686 -2.51768,-17.90234 -3.69002,-25.21518 -1.80001,-11.22808 4.81291,-24.45835 11.07008,-29.15123 0.62329,0.82489 -0.8515,0.19149 0.24837,1.4846 z"
   style="color:#000000;fill:#d48874;fill-opacity:1;fill-rule:nonzero;stroke:none;stroke-width:0.80000001px;marker:none;visibility:visible;display:inline;overflow:visible;enable-background:accumulate" /><path
   style="color:#000000;fill:#ffd7cc;fill-opacity:1;fill-rule:nonzero;stroke:none;stroke-width:1px;marker:none;visibility:visible;display:inline;overflow:visible;enable-background:accumulate"
   d="m 73.9314,186.16366 c -7.11197,5.16663 -11.50862,10.95068 -10.59596,24.99132 0.41476,6.38084 5.39337,14.9424 4.6225,21.59391 -0.56148,4.84478 -7.13335,14.17259 -11.73182,18.11414 0.32532,-0.96244 2.65536,-3.43949 4.36689,-5.68161 2.58045,-3.3804 4.8511,-6.85313 5.44541,-8.77866 2.06081,-6.67687 -2.51768,-17.90234 -3.69002,-25.21518 -1.80001,-11.22808 3.8289,-22.36733 10.08607,-27.06021 1.64695,-0.0547 0.39706,0.74318 1.49693,2.03629 z"
   id="path3494"
   inkscape:connector-curvature="0"
   sodipodi:nodetypes="csscssscc" /><path
   style="color:#000000;fill:#a85974;fill-opacity:1;fill-rule:nonzero;stroke:none;stroke-width:1.5625px;marker:none;visibility:visible;display:inline;overflow:visible;enable-background:accumulate"
   d="m 72.35504,181.78067 c -0.023,-0.88475 -0.8009,-1.24181 -1.30462,-1.91345 0.423,3.01488 1.52104,7.91952 3.73992,9.30631 0.17274,-0.28183 0.78277,-1.42059 0.86974,-1.7395 -0.45746,-2.06619 -2.6125,-4.40678 -3.30504,-5.65336 z"
   id="path5182"
   inkscape:connector-curvature="0"
   sodipodi:nodetypes="ccccc" /><path
   style="color:#000000;fill:#6b445e;fill-opacity:1;fill-rule:nonzero;stroke:none;stroke-width:1.5625px;marker:none;visibility:visible;display:inline;overflow:visible;enable-background:accumulate"
   d="M 63.08536,85.1471 C 60.53776,81.7198 57.06952,80.148264 55.925968,75.95524 60.1897,66.770496 53.163456,47.55932 48.768944,41.575184 52.50116,43.947408 70.95066,46.313032 72.2389,43.042008 73.56701,39.669744 70.40781,30.537304 71.50538,24.873616 c 1.8075,-9.32704 8.3731,-14.070672 12.95748,-13.643648 -5.09529,3.360712 -7.65905,18.514648 -7.19983,20.753432 1.62385,7.9164 0.56254,18.754512 1.63472,19.424624 -3.06298,9.924248 -8.72974,22.509688 -13.06581,27.568448 -0.56808,3.614464 -0.34791,8.256948 -0.34791,11.132768"
   id="path3280"
   inkscape:connector-curvature="0"
   sodipodi:nodetypes="ccccscsccc" /><path
   style="color:#000000;fill:#a85974;fill-opacity:1;fill-rule:nonzero;stroke:none;stroke-width:1.953125px;marker:none;visibility:visible;display:inline;overflow:visible;enable-background:accumulate"
   d="m 33.041014,116.21617 c -3.310814,-4.94426 -1.712003,-16.93827 0.06527,-19.372 1.308376,-1.79164 1.871311,-3.8716 3.472674,-7.1744 1.722608,-3.55287 7.544544,-4.56441 7.740848,-5.5459 -4.744776,-2.078166 -4.130624,0.74645 -5.83696,0.59133 -1.713328,-3.763192 0.304656,-5.602424 1.508688,-8.010488 -4.76396,-8.84512 -10.405207,-18.169824 -8.647398,-30.037088 -1.648544,1.849 -3.898544,4.17904 -5.34666,5.868512 -4.931629,10.584256 2.990352,18.819656 5.599596,26.15724 -0.471851,3.116992 -1.715286,10.610294 -1.946656,13.155364 -0.08069,1.21952 -4.310815,8.72801 -3.736729,15.21403 0.261638,2.95599 0.944224,16.38663 3.268778,25.98561 0.824764,-5.80374 -0.416148,-17.32263 3.858547,-16.83221 z"
   id="path3299"
   inkscape:connector-curvature="0"
   sodipodi:nodetypes="csscccccccscc" /><path
   style="color:#000000;fill:#d8b8ff;fill-opacity:1;fill-rule:nonzero;stroke:none;stroke-width:1.25px;marker:none;visibility:visible;display:inline;overflow:visible;enable-background:accumulate"
   d="m 89.86703,11.19322 c 2.7752,-3.848544 10.19364,-3.400344 13.16622,-1.918336 0.20788,3.927248 -1.91586,6.935832 -5.60528,9.057296 -2.73806,-1.42908 -7.56094,-4.177536 -7.56094,-7.13896 z"
   id="path3573"
   inkscape:connector-curvature="0"
   sodipodi:nodetypes="cccc" /><path
   style="color:#000000;fill:#d8b8ff;fill-opacity:1;fill-rule:nonzero;stroke:none;stroke-width:1.25px;marker:none;visibility:visible;display:inline;overflow:visible;enable-background:accumulate"
   d="m 129.07475,19.623481 c 0.22931,3.985846 1.37391,5.116781 3.08285,4.934156 -0.59342,2.634732 -0.34865,5.58547 0.18105,5.087656 0.25271,-0.237493 4.48643,-2.086381 5.42534,-4.083249 0.8639,-1.837317 -1.56208,-3.831693 -1.33687,-4.106167 2.18615,-2.664274 3.89663,-6.221268 2.23935,-7.224133 -1.76581,-1.068531 -4.47563,-1.37995 -6.25635,-0.588518 -0.45706,-4.226476 -5.75809,-7.962018 -10.45507,-3.936034 -2.35288,-4.563024 -11.97037,-2.54872 -13.78486,0.895792 0.17446,3.582557 2.03672,7.041982 5.43199,7.325887 1.41904,0.118656 4.36491,-1.633016 6.17896,-2.63117 0.83913,1.1221 2.83413,3.402629 5.71846,4.191115 0.83409,0.228012 2.76037,0.949445 3.57515,0.134665 z"
   id="path3581"
   inkscape:connector-curvature="0"
   sodipodi:nodetypes="ccsssscccscsc" /><path
   style="color:#000000;fill:#8270a8;fill-opacity:1;fill-rule:nonzero;stroke:none;stroke-width:1px;marker:none;visibility:visible;display:inline;overflow:visible;enable-background:accumulate"
   d="m 94.26811,16.885622 c -0.1106,-3.064696 0.13101,-6.658687 1.91802,-8.445703 -2.08573,-0.281416 -3.95675,-0.199312 -5.30546,0.95672 0.45067,1.808384 2.05946,6.327007 3.38744,7.488983 z"
   id="path3630"
   inkscape:connector-curvature="0"
   sodipodi:nodetypes="cccc" /><path
   style="color:#000000;fill:#583400;fill-opacity:1;fill-rule:nonzero;stroke:none;stroke-width:1px;marker:none;visibility:visible;display:inline;overflow:visible;enable-background:accumulate"
   d="m 94.96848,18.268068 c -1.85377,-1.662352 -4.9833,-3.855763 -5.4794,-6.088235 0.69264,-0.561768 1.65489,-1.53708 2.17436,-1.65252 0.15673,2.066 1.55091,3.877272 2.69622,5.566384 -0.22771,0.942648 0.6805,1.457579 0.60882,2.174371 z"
   id="path3600"
   inkscape:connector-curvature="0"
   sodipodi:nodetypes="ccccc" /><path
   style="color:#000000;fill:#8270a8;fill-opacity:1;fill-rule:nonzero;stroke:none;stroke-width:1.25px;marker:none;visibility:visible;display:inline;overflow:visible;enable-background:accumulate"
   d="m 115.67306,7.519818 c -2.15704,0.109128 -5.78149,0.826208 -6.8321,3.268417 -0.061,2.039072 1.50745,4.656077 2.6184,6.459021 0.027,-3.65904 2.52101,-7.75263 4.2137,-9.727438 z"
   id="path3676"
   inkscape:connector-curvature="0"
   sodipodi:nodetypes="cccc" /><path
   style="color:#000000;fill:#583400;fill-opacity:1;fill-rule:nonzero;stroke:none;stroke-width:1px;marker:none;visibility:visible;display:inline;overflow:visible;enable-background:accumulate"
   d="m 107.18844,10.440332 c 0.52154,0.388448 1.64447,-0.08038 1.86997,-0.130461 0.12194,2.837848 0.33704,3.532999 1.62267,5.461399 -0.69107,-0.0072 0.97038,3.409169 -0.0523,2.678089 -1.02272,-0.73108 -4.23086,-5.637355 -3.4403,-8.009027 z"
   id="path3640"
   inkscape:connector-curvature="0"
   sodipodi:nodetypes="ccccc" /><path
   style="color:#000000;fill:#8270a8;fill-opacity:1;fill-rule:nonzero;stroke:none;stroke-width:1.5625px;marker:none;visibility:visible;display:inline;overflow:visible;enable-background:accumulate"
   d="m 130.4569,23.360296 c -0.17126,-4.440688 2.62423,-7.089992 3.11996,-8.577184 -1.70243,1.418672 -3.50285,3.846248 -4.73433,4.769864 0.46315,1.372448 -0.2978,2.110408 1.61437,3.80732 z"
   id="path3926"
   inkscape:connector-curvature="0"
   sodipodi:nodetypes="cccc" /><path
   style="color:#000000;fill:#583400;fill-opacity:1;fill-rule:nonzero;stroke:none;stroke-width:1.25px;marker:none;visibility:visible;display:inline;overflow:visible;enable-background:accumulate"
   d="m 129.51578,22.7816 c -0.11425,-0.98752 0.1,-1.427248 0.51271,-1.977528 -0.0546,-0.767136 -0.0798,-0.779464 -0.43946,-1.354984 -0.38015,0.0704 -0.90175,0.26056 -1.24511,0.366208 0.11059,1.2368 0.40914,2.642192 1.17186,2.966304 z"
   id="path3728"
   inkscape:connector-curvature="0"
   sodipodi:nodetypes="ccccc" /><path
   style="color:#000000;fill:#583400;fill-opacity:1;fill-rule:nonzero;stroke:none;stroke-width:1px;marker:none;visibility:visible;display:inline;overflow:visible;enable-background:accumulate"
   d="m 35.985848,48.526136 c -1.375788,-1.039448 -2.270501,-2.732952 -2.270501,-4.248032 -0.794498,0.16736 -1.374701,0.587824 -1.757806,1.098632 0.886701,1.718272 2.046369,3.513168 3.369131,4.248032 0.261376,-0.402552 0.425704,-0.678384 0.659176,-1.098632 z"
   id="path3796"
   inkscape:connector-curvature="0" /><path
   style="color:#000000;fill:#d8b8ff;fill-opacity:1;fill-rule:nonzero;stroke:none;stroke-width:1.5625px;marker:none;visibility:visible;display:inline;overflow:visible;enable-background:accumulate"
   d="m 52.150624,46.562152 c 1.862928,-0.129072 3.3522,-1.226792 4.453928,-2.485912 1.023998,-1.759312 2.461518,-4.176216 2.687868,-6.000264 -4.646204,-2.53688 -12.38918,-0.837592 -13.304788,1.908864 -0.635904,4.247408 2.263448,5.710752 6.162992,6.577312 z"
   id="path3842"
   inkscape:connector-curvature="0"
   sodipodi:nodetypes="ccccc" /><path
   style="color:#000000;fill:#583400;fill-opacity:1;fill-rule:nonzero;stroke:none;stroke-width:1px;marker:none;visibility:visible;display:inline;overflow:visible;enable-background:accumulate"
   d="m 46.752408,39.663864 c -0.521432,0.57148 -1.024464,1.071416 -1.46484,1.574704 0.874448,2.189896 1.533624,4.281864 3.00292,5.200176 -0.0396,-0.87596 0.310648,-1.320312 0.512696,-1.794424 -1.081656,-0.911056 -1.46544,-3.224456 -2.050776,-4.980456 z"
   id="path3815"
   inkscape:connector-curvature="0"
   sodipodi:nodetypes="ccccc" /><path
   style="color:#000000;fill:#d8b8ff;fill-opacity:1;fill-rule:nonzero;stroke:none;stroke-width:1.5625px;marker:none;visibility:visible;display:inline;overflow:visible;enable-background:accumulate"
   d="m 59.29762,38.37936 c -0.30507,3.816816 0.47344,7.112384 2.90024,9.943648 1.38254,0.19348 2.97969,0.235472 4.29856,0.103584 2.12636,-1.493136 3.29723,-3.107232 3.98782,-5.178984 C 69.90049,38.639056 63.13319,35.98212 59.29762,38.37936 z"
   id="path3899"
   inkscape:connector-curvature="0" /><path
   style="color:#000000;fill:#583400;fill-opacity:1;fill-rule:nonzero;stroke:none;stroke-width:1px;marker:none;visibility:visible;display:inline;overflow:visible;enable-background:accumulate"
   d="m 59.9709,38.845464 c -0.57296,-0.05016 -0.98389,0.235872 -1.39833,0.466112 -0.21859,3.640896 0.44193,6.583624 2.74486,9.270384 -0.21021,-0.81272 0,-1.86444 0,-1.86444 0,0 -2.11397,-5.313952 -1.34653,-7.872056 z"
   id="path3865"
   inkscape:connector-curvature="0"
   sodipodi:nodetypes="ccccc" /><path
   style="color:#000000;fill:#8270a8;fill-opacity:1;fill-rule:nonzero;stroke:none;stroke-width:1.5625px;marker:none;visibility:visible;display:inline;overflow:visible;enable-background:accumulate"
   d="m 123.61022,19.211904 c 0.42832,-4.407672 2.28595,-6.827296 4.77508,-9.731288 -1.85834,-0.540728 -4.57068,-0.542696 -6.1112,-0.41432 0.138,2.135928 -0.68079,3.305872 -1.65728,4.868248 -0.3091,3.462184 3.19133,4.750232 2.9934,5.27736 z"
   id="path3907"
   inkscape:connector-curvature="0"
   sodipodi:nodetypes="ccccc" /><path
   style="color:#000000;fill:#8270a8;fill-opacity:1;fill-rule:nonzero;stroke:none;stroke-width:1.25px;marker:none;visibility:visible;display:inline;overflow:visible;enable-background:accumulate"
   d="m 180.77888,35.682932 c -2.69983,0.584704 -3.9262,1.768408 -4.45393,4.143184 0.86694,2.1026 3.82803,2.919624 5.23077,3.418136 -1.02437,-2.482288 -0.0162,-5.279352 -0.77684,-7.56132 z"
   id="path4114"
   inkscape:connector-curvature="0"
   sodipodi:nodetypes="cccc" /><path
   style="color:#000000;fill:#583400;fill-opacity:1;fill-rule:nonzero;stroke:none;stroke-width:1px;marker:none;visibility:visible;display:inline;overflow:visible;enable-background:accumulate"
   d="m 181.95701,44.628396 c -1.85526,-0.627968 -4.28546,-1.911344 -5.34666,-3.149408 0.0586,-0.619056 0.77869,-1.096432 0.95215,-1.245112 1.06672,1.174504 2.25189,1.88568 3.1494,2.7832 0.42008,0.749512 0.79057,1.22172 1.24511,1.61132 z"
   id="path3980"
   inkscape:connector-curvature="0" /><path
   style="color:#000000;fill:#d8b8ff;fill-opacity:1;fill-rule:nonzero;stroke:none;stroke-width:1.25px;marker:none;visibility:visible;display:inline;overflow:visible;enable-background:accumulate"
   d="m 195.70832,40.415137 c 1.22384,-0.579531 3.06668,-0.670405 3.86008,-1.816886 0.91773,-2.582548 0.76145,-5.534213 -1.25621,-7.434261 -4.1498,-0.629442 -7.70695,1.496457 -9.22443,4.430403 0.6919,2.893626 4.32923,3.840535 6.62056,4.820744 z"
   id="path4017"
   inkscape:connector-curvature="0"
   sodipodi:nodetypes="ccccc" /><path
   style="color:#000000;fill:#8270a8;fill-opacity:1;fill-rule:nonzero;stroke:none;stroke-width:1.25px;marker:none;visibility:visible;display:inline;overflow:visible;enable-background:accumulate"
   d="m 194.58305,39.800367 c -0.62441,-2.257707 -2.17794,-3.442466 -1.20729,-8.048291 -2.68089,-0.18823 -3.69021,2.108672 -4.37351,3.516725 1.74661,2.791894 2.86857,4.961313 5.5808,4.531566 z"
   id="path4122"
   inkscape:connector-curvature="0"
   sodipodi:nodetypes="cccc" /><path
   style="color:#000000;fill:#8270a8;fill-opacity:1;fill-rule:nonzero;stroke:none;stroke-width:1.25px;marker:none;visibility:visible;display:inline;overflow:visible;enable-background:accumulate"
   d="m 208.55759,43.163718 c -1.47006,-3.600816 -1.84164,-7.434907 -1.09426,-10.638194 -2.33172,0.826601 -4.62288,1.464971 -4.89672,3.829756 0.46228,2.551666 2.48484,4.550642 4.07594,5.81941 0.82174,0.110869 1.28735,0.488491 1.91504,0.989028 z"
   id="path4130"
   inkscape:connector-curvature="0"
   sodipodi:nodetypes="ccccc" /><path
   style="color:#000000;fill:#583400;fill-opacity:1;fill-rule:nonzero;stroke:none;stroke-width:1px;marker:none;visibility:visible;display:inline;overflow:visible;enable-background:accumulate"
   d="m 206.77094,40.963908 c -1.12693,-0.257922 -3.30765,-4.006748 -4.17231,-5.669998 -0.29509,-0.858586 -1.00248,0.791699 -1.45188,1.025326 0.90718,1.51906 4.20781,6.483274 5.94715,6.621304 -0.55949,-0.788875 -0.10824,-1.171674 -0.32298,-1.976623 z"
   id="path4046"
   inkscape:connector-curvature="0"
   sodipodi:nodetypes="cccccc" /><path
   style="color:#000000;fill:#583400;fill-opacity:1;fill-rule:nonzero;stroke:none;stroke-width:1.25px;marker:none;visibility:visible;display:inline;overflow:visible;enable-background:accumulate"
   d="m 214.7258,41.161991 c -0.31311,0.172193 -0.74723,0.82755 -0.93202,1.066417 0.65317,2.143218 2.95726,3.472313 4.40193,4.182525 -0.44071,-0.880687 -0.63584,-2.171226 -0.76489,-2.263334 -1.02726,-0.918262 -2.04709,-2.07163 -2.70502,-2.985608 z"
   id="path4138"
   inkscape:connector-curvature="0"
   sodipodi:nodetypes="ccccc" /><path
   style="color:#000000;fill:#7e4aa7;fill-opacity:1;fill-rule:nonzero;stroke:none;stroke-width:1.25px;marker:none;visibility:visible;display:inline;overflow:visible;enable-background:accumulate"
   d="m 91.42998,194.79027 c 0.46088,-2.50809 -2.49022,-10.25847 -2.49022,-11.57223 5.26529,4.70247 13.31035,10.94937 18.74994,12.15817 -3.01628,0.59133 -7.00881,1.46035 -9.22849,1.90429 -3.79719,0.79624 -4.35381,-0.81685 -7.03123,-2.49023 z"
   id="path5076"
   inkscape:connector-curvature="0"
   sodipodi:nodetypes="ccccc" /><path
   style="color:#000000;fill:#267fff;fill-opacity:1;fill-rule:nonzero;stroke:none;stroke-width:1.5625px;marker:none;visibility:visible;display:inline;overflow:visible;enable-background:accumulate"
   d="m 104.17408,195.37621 c -4.81821,0.17156 -5.53722,2.06373 -9.52144,0.29296 -1.60916,-1.68618 -2.11048,-6.78717 -2.19726,-7.1777 4.87129,4.10898 10.33814,6.74668 11.7187,6.88474 z"
   id="path4250"
   inkscape:connector-curvature="0"
   sodipodi:nodetypes="cccc" /><path
   style="color:#000000;fill:#7e4aa7;fill-opacity:1;fill-rule:nonzero;stroke:none;stroke-width:1.25px;marker:none;visibility:visible;display:inline;overflow:visible;enable-background:accumulate"
   d="m 87.18196,193.03246 c -1.77621,-4.37295 -2.07565,-11.0692 -3.36913,-15.3808 -2.88572,-4.27447 -9.89217,-6.49064 -13.17924,-8.54506 3.68269,6.59531 4.34537,18.87516 10.10307,22.82723 2.95619,-0.29461 4.7524,0.72243 6.4453,1.09863 z"
   id="path5084"
   inkscape:connector-curvature="0"
   sodipodi:nodetypes="ccccc" /><path
   style="color:#000000;fill:#267fff;fill-opacity:1;fill-rule:nonzero;stroke:none;stroke-width:1.5625px;marker:none;visibility:visible;display:inline;overflow:visible;enable-background:accumulate"
   d="m 74.52062,173.42266 c 2.18061,4.90168 2.68928,13.46883 6.6555,15.94771 2.05305,0.51805 1.97462,0.69921 4.10154,1.17187 -2.52317,-2.69694 -3.61035,-8.00612 -3.344,-10.93602 -1.44208,-2.03187 -3.01953,-5.30486 -7.41304,-6.18356 z"
   id="path4254"
   inkscape:connector-curvature="0"
   sodipodi:nodetypes="ccccc" /><path
   style="color:#000000;fill:#b66372;fill-opacity:1;fill-rule:nonzero;stroke:none;stroke-width:1px;marker:none;visibility:visible;display:inline;overflow:visible;enable-background:accumulate"
   d="m 161.1563,245.3272 c -6.08737,5.41098 -16.37137,6.7049 -22.55852,3.95506 -1.05264,0.14268 -1.7229,0.92161 -2.34373,1.46484 2.51359,2.80575 4.99001,4.20133 8.49606,4.98045 9.25169,1.16366 11.26453,-5.99322 16.40619,-10.40035 z"
   id="path5108"
   inkscape:connector-curvature="0" /><path
   style="color:#000000;fill:#b66372;fill-opacity:1;fill-rule:nonzero;stroke:none;stroke-width:1px;marker:none;visibility:visible;display:inline;overflow:visible;enable-background:accumulate"
   d="m 181.22459,234.19442 c -5.36093,-0.43013 -7.42325,4.46882 -10.83981,7.03123 -1.84388,0.19581 -3.78757,0.14649 -5.71287,0.14649 4.08587,-6.57484 12.1738,-9.7739 17.72903,-9.45224 3.39008,0.19628 6.97752,1.88453 4.53652,5.79013 0.17371,-2.87322 -3.65885,-3.3508 -5.71287,-3.51561 z"
   id="path5178"
   inkscape:connector-curvature="0"
   sodipodi:nodetypes="sccscs" /><path
   style="color:#000000;fill:#793f61;fill-opacity:1;stroke:#000000;stroke-width:0.80000001px;stroke-linecap:butt;stroke-linejoin:miter;stroke-miterlimit:4;stroke-opacity:1;stroke-dasharray:none;stroke-dashoffset:0;marker:none;visibility:visible;display:inline;overflow:visible;enable-background:accumulate"
   d="m 132.29898,263.78417 c -1.2157,-6.16458 1.57016,-9.30252 4.39452,-12.59762 2.45618,1.74101 4.5787,3.24621 6.88474,4.68749 -5.4441,0.15938 -7.46323,7.14691 -11.27926,7.91013 z"
   id="path5205"
   inkscape:connector-curvature="0" /><path
   style="color:#000000;fill:#825063;fill-opacity:1;fill-rule:nonzero;stroke:none;stroke-width:1px;marker:none;visibility:visible;display:inline;overflow:visible;enable-background:accumulate"
   d="m 138.89075,249.42874 c 18.38088,8.52491 26.23523,-18.01751 40.42955,-18.01751 -2.13192,-1.55296 -4.8318,-1.26529 -7.47068,-1.02538 -9.97767,5.19273 -18.26788,18.13896 -29.73622,16.99213 -1.47565,0.4004 -2.18804,1.16396 -3.22265,2.05076 z"
   id="path5207"
   inkscape:connector-curvature="0" /><g
   id="g3297"
   transform="translate(-124.12101,-42.440336)"><g
     id="g3299"
     clip-path="url(#clipPath3301)"><g
       id="g3305"
       transform="translate(323.3164,153.8721)"><path
         d="M 0,0 C -0.303,0.088 -0.134,0.871 0,0.991 0.302,0.903 0.133,0.12 0,0"
         style="fill:#ffffff;fill-opacity:1;fill-rule:evenodd;stroke:none"
         id="path3307"
         inkscape:connector-curvature="0" /></g><g
       id="g3309"
       transform="translate(289.0273,337.6431)" /><g
       id="g3313"
       transform="translate(283.3594,343.7358)" /><g
       id="g3317"
       transform="translate(263.1021,340.8311)"><path
         d="m 19.408,-60.714 c 1.395,-1.445 6.026,-3.078 7.45,-4.25 0.783,-0.645 2.097,-1.729 2.975,-2.126 3.515,-1.585 23.137,0.223 25.27,3.017 0.665,0.872 -3.195535,3.181615 -3.677252,6.723935 -7.103759,-1.781554 -15.612966,-1.773144 -18.308939,-1.553808 -7.297027,0.593664 -10.284427,3.195032 -13.132427,6.635032 -2.09,2.525 -4.023541,6.624064 -9.832382,7.649841 -6.7384596,1.189938 -12.63,4.148 -15.824,8.7 0.756,-12.496 9.11,-15.35 15.883,-17.183 5.042,-1.364 6.82,-5.151 9.197,-7.613 z M 11.852862,26.514922 C 9.8168619,27.196922 5.807,29.338996 4.53,29.541996 2.3829852,29.884059 -5.4603865,28.131709 -8.1493045,26.500915 c -2.6690375,-1.618737 -3.9902735,-3.820419 -4.1302845,-6.227918 -0.02632,-0.452479 1.043349,-3.293963 1.161568,-3.775083 -1.661928,-0.400908 -6.858359,-4.421777 -7.702186,-5.031399 C -21.016067,9.88012 -24.124368,2.587909 -25.675,-8.172 c -1.435368,-9.960091 -0.14081,-26.919602 4.046,-33.472 0.877955,-1.374008 4.194,-4.117 4.339,-4.624 0.346,-1.21 -0.23,-2.392 -0.709,-4.393 -2.862,-11.959 -0.736496,-10.174 3.471252,-16.662059 3.453,-10.487 9.1300905,-26.301645 8.7302438,-38.925741 -0.1344357,-4.24445 -3.0537661,-7.20938 -6.0424878,-10.25182 -0.57489,-0.58522 -1.962003,-1.722 -2.759003,-1.133 4.121215,4.29134 6.072485,8.46009 5.1790646,13.77971 -2.9047046,0.80803 -5.5058506,2.64776 -11.0908446,2.95019 -1.340717,0.0726 -11.999345,0.77176 -12.396953,0.61104 -2.033085,-0.82179 -19.955253,-2.58234 -28.858213,-11.60726 -0.420833,0.18232 -4.738812,-5.6474 -5.125749,-5.47846 -0.496272,0.21667 2.949578,6.4303 2.510786,6.65561 -2.338035,1.20052 -3.533357,2.81601 -4.378919,7.30981 -0.792514,4.211876 -1.089241,9.974271 -0.955177,16.20298 0.19,8.841 4.498432,14.247747 -1.227223,25.929905 C -74.189444,-54.654732 -80.473,-48.832 -82.184,-48.529 c 0.924,-2.933 2.261,-5.972 2.692,-9.351 0.57,-4.453 -0.127,-8.978 -0.612,-12.439 -0.487,-3.473 -15.026286,-22.991622 -18.344,-41.677 -1.616,-9.047 -5.48333,-19.1281 -5.05533,-24.9471 0.428,-5.818 -0.66457,-5.32124 0.63734,-10.09974 1.13903,7.28742 -0.58001,1.58184 1.01599,4.93984 0.82,1.725 1.601,3.944 3.117,3.259 0.669,-0.7 0.451,-1.283 0,-2.267 -2.05886,-4.39551 -6.09644,-11.55237 -6.28494,-14.62445 -2.46266,-6.59835 -4.88911,-14.47873 -4.94355,-18.18715 -0.0464,-3.16144 0.21075,-8.60035 0.50162,-11.03971 -3.42789,-10.12444 -1.92916,-14.62563 1.46973,-19.86577 0.995,-1.072 6.56114,-2.90092 3.80714,-3.66092 -1.541,0.772 -2.82587,0.30238 -4.11787,1.95338 -1.29576,-2.8156 2.9551,-11.10373 3.14681,-13.82753 -4.71764,-6.57191 -7.97769,-20.83227 -7.01594,-24.54385 0.21893,-0.84511 2.91635,-4.83928 7.03052,-7.92645 -0.41686,-3.02431 0.5451,-2.96876 1.74888,-3.89069 0.8811,-0.6748 2.60052,-0.59882 4.13418,-0.7092 1.089191,-0.0784 2.15921,0.48358 3.199592,0.63966 0.679243,-0.48511 1.650831,0.16659 2.231194,-0.20493 0.576452,-0.36902 1.069352,-0.20159 1.667421,-1.11887 1.220511,-4.18648 9.591505,-2.72179 11.76319,-1.32426 0.719686,-0.18135 0.465017,0.39344 1.333105,0.39685 3.850401,-1.43803 10.368637,-0.87361 10.859064,2.5383 0.09787,0.71928 -2.165232,3.43971 -3.86345,4.68351 -0.866753,0.63483 -2.504952,1.00559 -3.31099,0.74663 -0.854469,-0.27452 -1.955906,-0.27263 -2.561725,-1.48112 -0.224414,0.17739 -0.126691,1.98032 0.29146,2.7399 0.418704,0.76058 1.417496,0.84046 2.269192,1.19405 1.141273,0.0274 2.095042,0.0559 3.190381,-0.77277 1.65863,-1.25487 3.514215,-3.25735 3.978898,-4.25723 0.922612,0.53763 0.653298,0.96266 1.06332,1.42458 -0.41291,2.46472 -0.320907,1.39341 0.30284,4.98237 -1.532695,4.33763 -4.534853,16.90683 -5.925885,20.79493 -1.310058,3.66176 -4.256301,5.26559 -1.508843,11.69336 1.383207,3.23606 0.09367,9.21229 0.639664,10.56046 -5.653982,7.75899 -6.626365,8.27961 -5.479075,23.98977 0.591127,8.09447 3.591175,14.41915 3.840486,11.40076 -1.407,-5.714 -2.710193,-10.94755 -1.383417,-20.37558 0.230224,-1.63597 -2.121995,-5.01394 4.014005,-11.76294 1.0788,-5.2667 2.163641,9.32236 0.467993,17.38791 0.206,0.883 0.789,1.03 1.558,0.707 0.547245,-3.4415 2.169399,-11.57255 0.22515,-18.83116 -1.537488,-5.74002 -0.104195,-10.93441 -1.23015,-12.83284 -3.237091,-5.45795 4.177052,-15.91299 4.495,-17.927 1.737442,-11.00564 3.333059,-12.63132 4.331457,-17.69227 -3.961027,-8.83346 -5.71896,-19.2506 -1.710387,-28.21706 1.159104,-2.5927 8.022792,-7.0407 16.555812,-8.4047 3.717118,-3.75234 4.313928,-3.05661 8.991087,-3.19878 3.574193,-0.10864 4.832357,2.52714 5.937357,2.58559 1.581369,1.11278 1.45623,0.66948 3.341016,-0.20909 0.34708,-1.0746 2.271314,-2.57432 2.683484,-2.48577 2.011356,-0.21395 6.253874,-0.83748 9.253384,2.23005 0.175,1.784 2.948467,-0.70688 4.633346,-0.41701 4.0750731,0.70108 6.8677581,1.89487 6.9997488,4.1899 2.9120672,-0.0233 4.707351,0.60931 5.25135103,2.17931 0.59100002,1.707 -2.17973743,5.9481 -6.90365773,7.63384 -0.041335,1.49156 -0.6207903,4.18812 0.084988,5.85136 -1.7275287,5.30259 -6.2476771,11.73438 -8.7911251,14.62105 -5.869184,6.66119 -3.135558,6.90557 -8.52088,15.16457 -0.925,3.787 -0.402981,8.94601 1.752019,12.92201 1.378917,2.54358 7.948376,10.98421 11.234979,20.80375 1.852152,5.53377 1.954877,12.35366 1.234021,16.72025 -0.535,3.242 -1.352,6.975 -3.118,9.21 2.715,-0.408 4.3349997,-5.042 4.8999997,-8.137 1.0467936,-5.73499 1.0845154,-12.3796 -0.7320021,-18.26748 -3.7451696,-12.13924 -12.0051146,-22.40869 -11.9599976,-24.29552 0.161,-6.775 -0.315037,-5.54999 1.313963,-9.27499 3.066775,-1.24737 16.4170366,-0.58192 22.7901052,0.31464 10.7175618,1.50774 19.1179928,5.80884 21.8800268,8.6694 10.169823,8.75366 5.151074,10.79056 9.060583,15.77724 2.807,4.398 11.632322,15.43271 11.973322,16.58271 0.3,1.008 0.304,1.801 1.134,2.125 0.881375,-1.6606 0.43582,-2.78106 0.329964,-3.47398 -0.835567,-3.30515 -1.816278,-5.23567 -2.745957,-7.81699 1.150086,0.16017 2.317801,0.69395 3.45464,0.95135 0.907342,0.20543 2.041017,2.94083 2.884362,2.46367 -0.597004,-3.80802 -4.082246,-5.11162 -6.796246,-5.85962 -2.714,-0.748 -4.058546,-1.51819 -8.061605,-7.6272 -2.210475,-12.50796 -0.794961,-11.7525 -4.966994,-16.74368 -2.574416,-4.47039 -2.501786,-13.23219 1.065744,-15.63369 1.759043,-4.77153 4.867989,-4.77604 7.477755,-8.33352 -1.064825,-1.89102 0.661199,-4.49918 3.370381,-5.22774 2.36884,-0.5759 3.550132,-0.5195 4.835925,0.84256 1.403651,-0.69199 2.235971,-0.44972 2.936574,0.23376 1.080098,0.14942 0.569751,-2.2033 1.808168,-2.61631 0.9751,-1.48301 2.417464,-1.69399 2.943542,-1.81648 3.820335,-0.88955 5.868735,1.34054 5.8132,3.67592 1.371626,0.46505 2.294757,0.88952 2.732277,0.52077 1.377225,-3.32678 6.47679,-4.35559 7.07712,-3.96539 0.660672,0.16876 3.379961,0.20635 4.001092,0.8488 1.676443,1.734 1.249901,3.06168 1.150171,4.39681 3.134691,1.01495 4.892999,0.0705 4.991873,1.43321 0.111236,1.53309 -0.736548,4.07754 -2.170921,5.37178 -0.419401,0.37842 -1.69779,-2.45138 -2.111069,-2.16522 0.04024,0.38758 -0.386825,0.82505 -0.361349,1.66838 0.0226,0.74819 0.463769,1.92498 0.970734,2.03753 3.437769,1.316 0.281695,5.44042 0.54713,6.50713 2.046211,8.22312 -4.397888,24.36872 -1.832432,27.43174 2.382095,2.8441 0.883605,6.20528 1.530452,7.26911 1.307469,2.15032 3.165151,3.01224 2.74467,6.10831 1.581109,6.70148 -2.102872,18.50597 -5.17018,22.23097 -2.148693,3.33898 -3.232644,16.19028 -8.497724,28.15186 -1.531287,3.47889 -4.267857,7.07663 -7.273767,10.41057 -3.55748,3.94571 -4.562537,6.93599 -10.252715,10.09435 0.391846,-2.59308 2.054311,-11.42922 2.28749,-16.07021 0.490435,-9.76119 0.05069,-19.73394 -1.028297,-19.93659 0.158,9.082 -1.584199,21.96996 -3.128,29.023 -0.962342,4.39658 -1.065789,10.75358 -2.589577,16.22361 -2.093481,7.51508 -6.212505,14.88437 -12.962423,27.09939 -8.179311,6.909184 -1.677009,3.863262 -2.123932,6.006656 -1.063231,5.099137 -0.950363,6.955451 -0.583551,10.860137 -2.495,-0.036 -3.637,1.276 -5.358,2.285 -2.71,1.589 -8.384465,2.880195 -12.724,11.765 -2.8684649,1.657196 -13.7026655,1.131274 -18.024,6.404 -3.604666,4.398274 -6.633231,7.929716 -5.557517,15.788207 0.15,0.445 0.474,0.564 0.991,0.566 0.07135,-7.201968 5.2689355,-13.884116 10.6269997,-16.861 4.4459358,-2.470116 11.3120003,-0.526 15.8690003,-4.025 2.469,-5.51 5.446,-6.455 8.385,-8.593 3.15,-2.293 10.323,-3.521 11.684,-3.467 2.949,0.116 17.786582,1.706559 20.317,3.215 2.659107,1.585155 8.325778,5.646605 5.632651,9.93589 -0.28327,0.451159 -4.801651,5.945658 -4.425416,7.762834 0.108729,0.525146 -1.120051,-0.204788 -1.659622,-0.400953 0.158884,-1.378204 0.936513,-4.789941 2.629588,-5.376023 C 58.17057,-62.658933 56.41,-66.667 53.827,-67.757 49.05,-69.772 30.873,-70.052 29.833,-69.64 c -4.617,1.827 -11.732215,7.403791 -16.359,12.149 -3.226215,3.308791 -11.924,2.551 -17.728,9.812 -2.676,3.347 -3.532,9.536 -3.542,14.878 0.091,1.056 1.8792466,0.627826 2.3138728,0.04625 2.3941845,-3.203647 4.3843189,-5.292011 6.8951272,-7.272254 2.5101918,-1.979757 13.666801,-2.265286 16.579109,-5.210746 2.989331,-3.02336 3.163916,-1.568085 5.438369,-6.046239 1.474944,-2.904008 5.863655,-3.477862 7.854317,-4.058988 5.827572,-1.701221 9.648168,0.122271 15.468205,0.845973 5.084963,0.632298 15.553784,2.232131 17.96,6.193 5.988784,9.858131 6.925085,14.103992 7.469,19.753 0.529085,5.494992 -5.159599,11.440363 -4.349086,17.321293 1.352642,1.006433 1.922783,5.7625517 0.540086,8.466707 -1.402775,2.74342205 -12.098295,6.0315477 -16.342604,12.946149 0.361062,0.861871 2.154758,1.454226 2.506108,2.099931 1.631705,1.282231 1.68077,7.252294 -1.429738,10.68862 -1.891816,2.089979 -5.641003,0.484613 -11.306253,6.70065 -0.969482,1.063737 -6.584199,2.524931 -8.554691,1.06725 C 27.705607,30.328133 22.406585,30.454588 14.732,27.983996 13.68819,27.633375 12.643517,27.003888 11.852862,26.514922 z M -67.665932,-258.96022 c -0.989218,-2.56925 -5.641968,-4.69659 -11.020962,-3.46215 -1.355355,-0.13818 -0.615678,-0.14734 -2.315462,0.0838 -2.536055,-1.16661 -5.386762,-2.17644 -7.839496,-1.65217 -2.5566,0.54646 -4.668139,2.67734 -4.902816,3.89153 -0.193138,0.99927 -1.032982,0.47213 -1.927057,0.22639 -0.994081,-0.72754 -2.463759,-0.83443 -3.733952,-0.86316 -1.628043,-0.0368 -5.012033,0.45422 -6.434223,1.27845 -1.65259,0.95775 -3.03562,1.69966 -3.00417,4.24109 -2.3998,1.51368 -4.49434,3.97968 -5.82284,5.52841 -1.932,2.252 0.0809,5.606 -0.32509,9.288 -0.507,4.584 4.78445,16.56687 5.55645,20.60087 -1.4616,7.35108 -0.47311,9.51959 -2.13434,13.83834 -2.4541,4.06963 -5.45586,12.46092 -1.88466,20.49449 -0.43439,3.27782 0.51667,12.25391 1.12513,16.00297 1.29941,8.00673 3.80188,10.56923 4.03092,12.24104 0.55687,4.06478 1.43899,7.62313 1.87055,8.93361 0.23443,5.83873 -0.99191,11.11589 0.20309,14.97891 0.639,5.291 5.76487,23.91377 6.79087,29.09677 2.23,11.279996 11.0197,25.944519 16.78,32.508996 1.39,8.152 3.059,14.352 -2.222,23.883 -0.58,1.047 -1.193,2.19 -1.275,3.401 0.8,0.696 3.118,-0.434 4.151,-1.125 3.37,-2.253 12.145556,-9.473809 14.317014,-15.595855 3.832728,-10.805708 4.659159,-10.572904 0.376986,-25.644145 0.175,-6.224 0.211522,-12.749366 1.983,-18.135996 1.138545,-3.46204 1.154081,-1.67167 3.185045,-3.01773 7.106733,6.96495 20.596943,8.293997 22.762806,9.043017 5.037502,1.742109 16.141041,0.684896 20.906701,-0.257912 4.765659,-0.942805 7.026583,-1.558045 8.9325832,-2.035045 0.447777,13.752742 -8.3785562,29.970362 -9.6835562,34.106362 C -23.645514,-61.756661 -23.548,-62.063 -20.04,-48.576 c -2.35162,1.014247 -6.252875,5.740714 -7.117951,8.479748 -3.210976,10.166704 -3.304872,25.990961 -1.311049,37.099252 0.902307,5.0270697 3.558379,10.3296608 6.283639,13.789048 2.999982,3.808114 6.185242,5.583555 8.437361,7.131952 -0.866,2.43 0.105,6.122 1.401,7.759 1.731,2.187 3.34,2.502 6.326,3.953 3.063,1.487 6.358,2.822 10.834,2.031 2.295,-0.405 5.273841,-1.98 7.179841,-2.55 13.183502,4.666477 16.993174,3.308499 19.968243,3.149361 1.824414,1.066239 7.183642,1.933284 11.347003,-0.802913 2.402236,-1.57877 5.842949,-4.29994 7.103456,-4.422536 4.093936,-0.398176 5.280185,-4.857574 6.050076,-6.748975 1.244593,-3.05761 1.700158,-8.327128 -1.58446,-10.7751915 1.413,-1.873 7.159761,-5.2478887 9.545841,-6.5837455 5.29092,-2.96214321 8.353546,-4.8302467 7.919017,-8.8581897 -0.251471,-2.3310571 0.123447,-4.3169393 -1.47598,-7.1397973 -0.221286,-1.62395 0.771844,-1.97703 2.174231,-5.890819 1.544106,-4.309297 1.533055,-11.81656 -0.01027,-16.962194 -2.654972,-8.852009 -4.129325,-10.055822 -6.42,-14.229 -1.441325,-2.625822 -2.114064,-3.816699 -6.496637,-5.070381 -0.242907,-0.873922 0.463221,-2.379466 1.395197,-3.290468 1.403741,-1.372224 2.421596,-5.225031 2.69903,-8.1683 0.391113,-4.149264 -2.952814,-8.393397 -7.756022,-10.684058 -2.22265,-1.059987 -15.047362,-4.614 -22.947362,-4.326 -3.475121,-7.646529 2.572968,-12.421081 -0.406045,-13.058876 5.992852,-9.361867 12.034134,-20.089747 14.676711,-29.486637 2.051469,-7.29495 1.711666,-3.98502 2.14171,-6.76457 6.823806,-1.63819 7.724581,-4.85603 10.398581,-8.83003 2.187,-3.251 8.766533,-9.91133 10.32997,-14.81557 3.276454,-10.27768 3.108667,-19.69813 8.968865,-29.73531 5.16883,-8.85302 3.647341,-17.10516 3.090097,-21.55425 -0.637756,-5.09191 -1.914149,-9.04474 -3.875376,-12.72733 -1.90558,-3.73012 4.549113,-16.1627 1.878852,-28.57527 0.647913,-0.92717 1.131113,-2.27975 0.492267,-4.06637 2.045011,-1.34195 2.824803,-7.33507 2.121694,-9.71764 -0.413817,-1.40228 -1.381701,-2.64981 -4.405481,-2.08387 -0.124029,-1.37657 -0.261728,-1.74061 -0.884301,-2.89508 -1.410932,-2.61637 -5.292285,-2.89736 -6.286087,-3.07334 -1.247229,-0.22086 -4.819783,0.48 -6.650085,1.319 -0.962975,0.4414 -2.535186,4.02276 -2.464926,3.15314 0.118882,-1.47142 -1.59903,-3.31981 -4.78046,-4.4091 -1.356139,-0.46433 -2.759033,-0.42976 -5.295789,0.69626 -1.426112,0.63303 -2.748288,2.7972 -3.174719,3.67983 -0.403191,-0.32494 -0.879919,0.31364 -1.240652,0.0552 -0.664996,-1.57405 -3.365035,-2.68128 -7.186704,-1.50162 -1.958687,0.30782 -6.752908,4.94941 -5.517687,7.88848 -2.51792,2.0738 -7.037152,3.92237 -8.754269,9.24735 -0.698849,1.98065 -1.32995,5.48864 -2.694005,9.4031 -0.514029,1.47513 8.190033,12.33015 7.424986,13.86074 -1.153774,-1.58086 -4.993649,-7.94205 -11.519526,-10.89848 -12.5808511,-5.69952 -31.767834,-8.31195 -37.262854,-6.70052 2.981439,-9.15839 -0.04308,-4.13744 3.783659,-7.42343 4.2702432,-3.66683 6.6761605,-12.58017 7.8885773,-18.28327 -0.7509271,-0.009 -1.2583115,0.26911 -1.0946559,-0.51022 0.2873293,-1.36828 0.4672901,-4.01972 0.6379062,-4.24212 1.1831684,0.01 5.1005878,-2.47198 5.65324887,-1.50467 2.29295683,-0.72647 3.90241453,-7.02736 2.72011193,-8.94127 -0.7842375,-1.83963 -5.6252979,-2.60442 -6.5712981,-3.09239 0.1227851,-0.86977 -0.9045433,-2.05558 -2.0019718,-3.18749 -0.9094103,-0.93797 -6.7128895,-2.55106 -9.1755145,-1.05814 -1.711,-1.638 -8.044044,-2.43579 -9.804418,-2.40962 -2.782535,0.0414 -6.046145,1.55951 -6.232854,2.93928 -1.183591,0.39038 -1.104613,-0.35552 -2.118523,-1.30182 -2.163412,-1.32275 -4.54335,-1.7565 -6.911503,-1.93464 -4.898883,-0.36852 -8.052069,2.85248 -8.922069,4.32248 -7.391363,0.0383 -14.762278,2.43689 -18.394084,8.94183 -5.089259,9.11539 -1.383562,18.63255 0.248482,22.00227 z"
         style="fill:#000000;fill-opacity:1;fill-rule:evenodd;stroke:none"
         id="path3319"
         inkscape:connector-curvature="0"
         sodipodi:nodetypes="cccccscscccccsscssscccssccsscssscsccccccccccscccccccsscsccccsscscscccsscscscccssscscsccccsccccsccscccsccsccccccscsccccccccscccscsscscsssccsscscsscscccsccscccsssccccsccsssssssscsccssccccccsscssccccccsscccccccscscszcccsssccccccssscsscssscsssccsccssscccscsssssscccccscscscsccccscsccscscc"
         inkscape:export-xdpi="180"
         inkscape:export-ydpi="180" /></g></g></g><path
   style="color:#000000;fill:#000000;stroke:none;stroke-width:1px;marker:none;visibility:visible;display:inline;overflow:visible;enable-background:accumulate"
   d="m 178.92726,289.07259 c -1.58541,-0.6787 -2.2953,-0.091 -2.67242,-1.60345 -0.49904,-2.00148 1.66566,-2.14702 2.6701,-1.65841 1.03949,0.50566 1.86731,0.80426 2.14025,1.72522 1.15679,3.90318 -1.27628,7.78251 -4.67672,7.28233 -1.81173,-0.2665 -0.34634,-0.58856 -0.13362,-0.66811 2.68107,-1.00268 2.67241,-2.8693 2.67241,-5.07758 z"
   id="path3473"
   inkscape:connector-curvature="0"
   sodipodi:nodetypes="csssssc" /><path
   style="color:#000000;fill:#a85974;fill-opacity:1;fill-rule:nonzero;stroke:none;stroke-width:1.5625px;marker:none;visibility:visible;display:inline;overflow:visible;enable-background:accumulate"
   d="m 170.57488,302.52109 c 1.2488,-1.02088 2.63354,-0.82301 3.96834,-0.37793 3.80484,1.26868 5.58957,-0.18025 8.12563,-2.26762 0.45758,-0.37663 0.94702,0.48244 0.85035,0.5669 -1.89311,1.65404 -2.90849,3.76483 -5.00765,4.06282 -2.35114,0.33376 -3.98809,-1.01761 -5.3856,-1.2283 -1.49166,-0.22487 -2.01673,-0.22154 -2.55107,-0.75587 z"
   id="path3544"
   inkscape:connector-curvature="0"
   sodipodi:nodetypes="csssssc" /><path
   style="color:#000000;fill:#a85974;fill-opacity:1;fill-rule:nonzero;stroke:none;stroke-width:1.5625px;marker:none;visibility:visible;display:inline;overflow:visible;enable-background:accumulate"
   d="m 187.08502,285.73207 c -0.14897,-0.76432 0.77948,-1.08725 1.33621,-0.40085 0.38174,3.52902 1.45795,7.09032 -0.47113,8.81896 1.01492,-2.93109 -0.45194,-6.35242 -0.86508,-8.41811 z"
   id="path3769"
   inkscape:connector-curvature="0"
   sodipodi:nodetypes="cccc" /><path
   sodipodi:type="arc"
   style="opacity:0.98999999;color:#000000;fill:#ffffff;fill-opacity:1;fill-rule:nonzero;stroke:none;stroke-width:1.5625px;marker:none;visibility:visible;display:inline;overflow:visible;enable-background:accumulate"
   id="path3831"
   sodipodi:cx="336.97467"
   sodipodi:cy="87.157875"
   sodipodi:rx="3.7580819"
   sodipodi:ry="3.7580819"
   d="m 340.73275,87.157875 c 0,2.075531 -1.68255,3.758082 -3.75808,3.758082 -2.07553,0 -3.75808,-1.682551 -3.75808,-3.758082 0,-2.075531 1.68255,-3.758082 3.75808,-3.758082 2.07553,0 3.75808,1.682551 3.75808,3.758082 z"
   transform="matrix(0.8,0,0,-0.8,-124.12101,371.55966)" /><path
   transform="matrix(0.33777779,0,0,-0.33777779,27.226692,324.19145)"
   d="m 340.73275,87.157875 c 0,2.075531 -1.68255,3.758082 -3.75808,3.758082 -2.07553,0 -3.75808,-1.682551 -3.75808,-3.758082 0,-2.075531 1.68255,-3.758082 3.75808,-3.758082 2.07553,0 3.75808,1.682551 3.75808,3.758082 z"
   sodipodi:ry="3.7580819"
   sodipodi:rx="3.7580819"
   sodipodi:cy="87.157875"
   sodipodi:cx="336.97467"
   id="path3833"
   style="opacity:0.98999999;color:#000000;fill:#ffffff;fill-opacity:1;fill-rule:nonzero;stroke:none;stroke-width:1.5625px;marker:none;visibility:visible;display:inline;overflow:visible;enable-background:accumulate"
   sodipodi:type="arc" /><path
   style="opacity:0.98999999;color:#000000;fill:#99c4df;fill-opacity:1;fill-rule:nonzero;stroke:none;stroke-width:1px;marker:none;visibility:visible;display:inline;overflow:visible;enable-background:accumulate"
   d="m 124.84799,293.65266 c 1.39692,-6.24147 3.60903,-10.9165 7.16513,-13.68236 -0.72831,-0.40914 -1.424,-0.69116 -2.22551,-0.95832 -3.24426,4.25197 -4.67734,10.92259 -4.93962,14.64068 z"
   id="path3960"
   inkscape:connector-curvature="0"
   sodipodi:nodetypes="cccc" /><path
   style="color:#000000;fill:#a85974;fill-opacity:1;fill-rule:nonzero;stroke:none;stroke-width:1.5625px;marker:none;visibility:visible;display:inline;overflow:visible;enable-background:accumulate"
   d="m 127.21963,276.09368 c 3.69937,2.78974 6.16854,2.76647 8.46407,2.37246 1.4331,-0.24599 3.26709,-0.55697 4.41099,-2.03452 1.16397,-1.50348 2.62763,-2.83063 3.28516,-2.72102 1.42499,0.23754 3.4356,1.61986 1.85349,4.30551 -1.11238,1.15109 -2.92784,0.42452 -3.75956,1.16802 -1.80687,1.61523 -3.97355,1.91637 -6.31108,1.9412 -1.68555,0.0179 -3.73283,-0.84455 -5.46992,-1.79785 -0.33572,-0.18424 -3.54627,6.09638 -4.15366,9.7543 -0.27614,-4.93614 1.61819,-10.14464 1.85242,-10.66695 -2.54708,-1.67616 -1.46592,-3.29698 -0.17191,-2.32115 z"
   id="path3950"
   inkscape:connector-curvature="0"
   sodipodi:nodetypes="sssscsssccs" /><path
   style="color:#000000;fill:#6b445e;fill-opacity:1;fill-rule:nonzero;stroke:none;stroke-width:1.25px;marker:none;visibility:visible;display:inline;overflow:visible;enable-background:accumulate"
   d="m 127.09162,276.53579 c 0.48824,-0.12912 2.81687,1.73322 4.10965,2.29035 2.3174,0.99867 4.64258,1.18146 7.65698,0.0723 1.13993,-0.41943 2.08752,-2.16153 3.83187,-3.1445 2.58163,-1.45479 3.66063,1.38208 2.29778,2.88734 -0.97591,0.82835 -2.96728,-0.60486 -4.30192,0.6822 -1.36383,1.3152 -4.99797,1.35172 -7.3959,1.20473 -1.33895,-0.0821 -3.28994,-1.10861 -4.72558,-2.06561 -1.26555,-0.84363 -2.07282,-1.76819 -1.47288,-1.92684 z"
   id="path4168"
   inkscape:connector-curvature="0"
   sodipodi:nodetypes="cssscssssc" /><path
   style="color:#000000;fill:#000000;stroke:none;stroke-width:1px;marker:none;visibility:visible;display:inline;overflow:visible;enable-background:accumulate"
   d="m 142.79395,276.60272 c 0.84946,-0.67437 1.87751,0.56808 1.90294,1.35037 0.0451,1.38873 -0.22735,1.10386 -0.96179,1.56289 -2.18652,-0.13886 -2.81786,1.57684 -5.04935,1.80334 -1.58608,0.16099 -3.64906,-0.0322 -5.03089,-0.29717 -2.83609,-0.54367 -7.0432,-3.24386 -5.87291,-3.78134 2.52301,1.79384 5.78121,2.99826 8.68577,2.80988 3.83228,-0.24856 3.75362,-1.40563 6.32623,-3.44797 z"
   id="path4328"
   inkscape:connector-curvature="0"
   sodipodi:nodetypes="sscsscss" />



<path
   style="color:#000000;fill:#610200;fill-opacity:1;fill-rule:evenodd;stroke:none;stroke-width:1px;marker:none;visibility:visible;display:inline;overflow:visible;enable-background:accumulate"
   d="m 41.19652,93.46011 c 7.696824,-2.01705 10.869136,1.46703 13.388232,3.20874 1.450792,1.68679 1.5306,4.7528 -0.492008,6.88805 -6.164808,4.70052 -14.935088,6.23247 -20.664154,2.46002 -1.449611,-4.81892 9.572874,-8.99375 15.744122,-7.38006 4.628136,1.2102 -0.979632,1.96772 -0.984008,1.96802 -5.114536,0.34686 -8.0764,1.56205 -10.391768,3.00915 5.23104,2.29834 10.727568,-0.24109 14.327792,-1.04113 1.17984,-1.99585 1.452136,-3.00061 0.492008,-4.10742 -3.41172,-1.45496 -6.315872,-4.03803 -12.665144,-1.92161 -1.403216,-3.25078 -0.141264,-2.72049 1.244928,-3.08376 z"
   id="path3207"
   inkscape:connector-curvature="0"
   sodipodi:nodetypes="scccssccccs" /><path
   style="color:#000000;fill:#000000;stroke:none;stroke-width:0.80000001px;marker:none;visibility:visible;display:inline;overflow:visible;enable-background:accumulate"
   d="m 58.84777,37.866666 c -0.5486,2.743024 -0.5552,4.929737 -3.67937,7.157409 -1.032779,0.597778 -2.952081,1.01252 -4.301358,0.639499 -0.736177,-0.203524 -1.511241,-0.271791 -2.245173,-1.192624 -0.117162,0.657277 -0.407269,1.218706 -0.407269,1.884045 1.571607,1.28062 2.373357,2.545733 4.500956,2.219604 1.152951,-0.62293 4.138844,-1.330156 4.930904,-2.355786 1.45798,-1.887926 2.0137,-4.803092 2.0137,-7.632297 -0.84197,-0.149501 -0.004,-1.052916 -0.81239,-0.71985 z"
   id="path3228"
   inkscape:connector-curvature="0"
   sodipodi:nodetypes="ccscccscc" /><path
   style="color:#000000;fill:#000000;stroke:none;stroke-width:0.80000001px;marker:none;visibility:visible;display:inline;overflow:visible;enable-background:accumulate"
   d="m 40.93091,50.77719 c -3.641024,1.305968 -5.16068,-1.152564 -5.868503,-1.329524 -0.183869,-0.660999 0.07783,-1.141437 0.117778,-1.727188 1.274546,1.45032 3.406249,0.833696 4.108909,0.989843 0.855043,-0.686392 2.017093,-1.340224 2.632258,-2.270191 1.203167,-1.81887 0.656267,-3.901591 0.656267,-5.457909 0.510628,-0.292499 1.605083,-1.114902 1.601964,-0.170893 0.827776,4.654592 -2.229889,7.67359 -3.248673,9.965862 z"
   id="path3230"
   inkscape:connector-curvature="0"
   sodipodi:nodetypes="ccccsccc" /><path
   style="color:#000000;fill:#ffd7cc;fill-opacity:1;fill-rule:nonzero;stroke:none;stroke-width:1.25px;marker:none;visibility:visible;display:inline;overflow:visible;enable-background:accumulate"
   d="m 105.52206,197.84766 c 2.69324,-0.60228 7.69312,-0.87381 11.09207,-2.63928 4.28453,-2.22546 6.97427,-6.13454 9.91998,-8.34383 0.7127,0.32175 1.38171,0.77659 1.96802,1.14303 -2.90097,2.27476 -5.3158,5.96842 -9.44512,7.98118 -2.7255,1.3285 -7.10726,1.26336 -9.62877,1.93096 -0.98206,0.45143 -2.39294,0.53179 -3.90618,-0.0721 z"
   id="path3388"
   inkscape:connector-curvature="0"
   sodipodi:nodetypes="csccsccc" /><path
   sodipodi:nodetypes="csccscc"
   inkscape:connector-curvature="0"
   id="path3396"
   d="m 103.08676,197.23884 c 2.87474,-0.64286 7.6446,-1.29621 11.35265,-3.30635 4.14498,-2.24699 7.21907,-5.93348 10.00731,-8.02466 0.53874,0.23472 0.59893,0.0808 1.18524,0.44723 -2.72949,2.14031 -5.40258,5.94379 -9.75716,8.25484 -3.32829,1.76638 -8.3089,2.23453 -11.05622,2.96192 -1.10193,-0.0786 -0.85883,-0.28968 -1.73182,-0.33298 z"
   style="color:#000000;fill:#d48874;fill-opacity:1;fill-rule:nonzero;stroke:none;stroke-width:0.80000001px;marker:none;visibility:visible;display:inline;overflow:visible;enable-background:accumulate" /><path
   style="color:#000000;fill:#000000;stroke:none;stroke-width:1px;marker:none;visibility:visible;display:inline;overflow:visible;enable-background:accumulate"
   d="m 106.02251,10.461438 c -0.76271,2.971524 -5.73894,7.632396 -7.40621,8.163274 -1.42546,0.453883 -2.6815,0.571299 -3.93496,-0.552978 -0.1926,-0.789173 -1.38248,-2.714384 -1.13067,-3.158375 1.80669,0.921745 4.18852,1.462504 4.90661,1.088461 0.9434,-0.491407 4.18343,-2.236573 4.60809,-6.67105 1.58232,-0.449088 1.76553,-1.120747 2.95714,1.130668 z"
   id="path3554"
   inkscape:connector-curvature="0"
   sodipodi:nodetypes="csccscc" /><path
   style="color:#000000;fill:#583400;fill-opacity:1;fill-rule:nonzero;stroke:none;stroke-width:1.25px;marker:none;visibility:visible;display:inline;overflow:visible;enable-background:accumulate"
   d="m 122.78731,20.817624 c -1.69208,-1.604824 -3.01509,-3.913008 -3.46588,-5.941576 1.07911,0.177976 1.49579,-0.11452 1.91344,-0.782768 -0.12138,1.299208 0.6086,2.127424 0.83991,3.283928 0.19952,1.075392 0.87463,2.548864 0.71253,3.440416 z"
   id="path3686"
   inkscape:connector-curvature="0"
   sodipodi:nodetypes="ccccc" /><path
   style="color:#000000;fill:#000000;stroke:none;stroke-width:1px;marker:none;visibility:visible;display:inline;overflow:visible;enable-background:accumulate"
   d="m 123.45118,9.988632 c -1.90864,6.768626 -7.18155,8.753036 -10.58931,9.639778 -1.16603,-0.610394 -1.59677,0.01763 -2.40287,-1.092741 -0.6242,-1.202793 -0.49605,-2.631889 -0.43392,-3.358048 1.2116,1.656847 4.055,1.761153 4.99162,1.943751 2.37376,-0.712629 5.45481,-4.535801 6.0648,-6.749598 0.20194,0.647227 1.92901,-0.89774 2.36968,-0.383142 z"
   id="path3556"
   inkscape:connector-curvature="0"
   sodipodi:nodetypes="ccccccc" /><path
   style="color:#000000;fill:#000000;stroke:none;stroke-width:1px;marker:none;visibility:visible;display:inline;overflow:visible;enable-background:accumulate"
   d="m 135.35261,14.344873 c -1.69227,3.10547 -4.99854,6.296589 -7.16219,7.623898 -0.78048,0.478796 -3.81532,-0.661966 -4.62415,-0.537531 -1.52102,-1.151695 -1.712,-2.90271 -1.73372,-4.672245 0.88249,1.273145 4.1393,2.636832 5.51316,2.990609 2.11978,-0.482075 4.33516,-3.088126 5.67101,-5.542888 1.20515,-0.181801 1.52817,-0.12529 2.33589,0.138157 z"
   id="path3558"
   inkscape:connector-curvature="0"
   sodipodi:nodetypes="csccccc" /><path
   style="color:#000000;fill:#000000;stroke:none;stroke-width:1px;marker:none;visibility:visible;display:inline;overflow:visible;enable-background:accumulate"
   d="m 131.82933,24.959312 c 1.03806,-0.145592 0.65295,-0.652952 1.10701,-1.107008 -1.49625,-0.925664 -2.31192,-1.380512 -2.98109,-3.641096 -0.31293,1.60684 -0.44141,1.013016 -0.5343,2.487328 0.30994,1.254576 0.80688,1.549 2.40838,2.260776 z"
   id="path3560"
   inkscape:connector-curvature="0"
   sodipodi:nodetypes="ccccc" /><path
   style="color:#000000;fill:#ffffff;stroke:none;stroke-width:1px;marker:none;visibility:visible;display:inline;overflow:visible;enable-background:accumulate"
   d="m 97.92563,14.702104 c 1.24016,-1.153568 1.21585,-2.996152 1.82647,-4.522696 0.50105,0.409064 1.17228,0.650696 1.30462,1.3916 -0.46768,1.661112 -1.70786,2.498544 -3.13109,3.131096 z"
   id="path3638"
   inkscape:connector-curvature="0"
   sodipodi:nodetypes="cccc" /><path
   style="color:#000000;fill:#ffffff;stroke:none;stroke-width:1px;marker:none;visibility:visible;display:inline;overflow:visible;enable-background:accumulate"
   d="m 116.01639,14.267225 c 1.20265,-0.922272 1.47857,-2.40224 1.47857,-3.218064 0.47715,0.190384 0.97707,0.323432 1.47857,0.434872 -0.33715,1.667608 -1.56329,2.163704 -2.95714,2.783192 z"
   id="path3684"
   inkscape:connector-curvature="0" /><path
   style="color:#000000;fill:#ffffff;stroke:none;stroke-width:1px;marker:none;visibility:visible;display:inline;overflow:visible;enable-background:accumulate"
   d="m 127.93194,16.180672 c 0.47813,-1.173736 0.76577,-2.619744 0.95672,-3.478992 0.51534,0.0508 1.34102,0.664192 1.3916,0.6958 -0.40157,1.237072 -1.29356,2.123968 -2.34832,2.783192 z"
   id="path3722"
   inkscape:connector-curvature="0" /><path
   style="color:#000000;fill:#000000;stroke:none;stroke-width:1px;marker:none;visibility:visible;display:inline;overflow:visible;enable-background:accumulate"
   d="m 131.82933,31.84736 c 3.55409,-1.614752 7.65199,-5.276736 7.85393,-7.720056 0.0746,-0.901976 -1.44421,-2.101792 -2.19588,-3.104024 -0.34116,0.25844 -2.17016,2.304128 -2.21402,2.337016 0.48662,0.642848 0.71587,0.730928 0.87395,1.521328 -0.7917,0.921448 -2.55562,2.355384 -4.12377,2.220496 -0.17157,1.33828 0.27583,3.993184 -0.19421,4.74524 z"
   id="path3726"
   inkscape:connector-curvature="0"
   sodipodi:nodetypes="csccccc" /><path
   style="color:#000000;fill:#ffffff;fill-opacity:1;fill-rule:nonzero;stroke:none;stroke-width:1px;marker:none;visibility:visible;display:inline;overflow:visible;enable-background:accumulate"
   d="m 134.70367,20.045744 c 0.97812,-0.798104 1.01501,-2.268192 1.29475,-3.107392 0.41021,0.223976 0.72191,0.355376 1.08758,0.517904 -0.31871,1.069712 -1.45894,2.566128 -2.38233,2.589488 z"
   id="path3758"
   inkscape:connector-curvature="0"
   sodipodi:nodetypes="cccc" /><path
   style="color:#000000;fill:#a85974;fill-opacity:1;fill-rule:nonzero;stroke:none;stroke-width:1.953125px;marker:none;visibility:visible;display:inline;overflow:visible;enable-background:accumulate"
   d="m 107.57188,105.43661 c 0.60753,-8.22378 -5.31407,-13.60047 -6.77709,-19.78537 3.02773,-0.15065 3.55092,1.79588 4.72405,4.39441 2.04431,6.04266 6.94516,13.97317 3.79567,19.59195 -1.68034,-2.20351 -1.15534,-2.99862 -1.74263,-4.20099 z"
   id="path3786"
   inkscape:connector-curvature="0" /><path
   style="color:#000000;fill:#ffffff;stroke:none;stroke-width:1px;marker:none;visibility:visible;display:inline;overflow:visible;enable-background:accumulate"
   d="m 40.014152,47.134544 c 0.71744,-1.660456 1.645984,-3.213152 1.318352,-4.687488 -0.709848,-0.270536 -1.9048,-0.21972 -2.416984,-0.21972 0.635584,1.637816 0.610464,3.442696 1.098632,4.907208 z"
   id="path3850"
   inkscape:connector-curvature="0" /><path
   style="color:#000000;fill:#ffffff;stroke:none;stroke-width:1px;marker:none;visibility:visible;display:inline;overflow:visible;enable-background:accumulate"
   d="m 53.93012,43.618928 c 1.499952,-1.0052 2.246344,-2.248704 2.416984,-3.955064 -0.396064,-0.651624 -1.138208,-0.692432 -1.53808,-0.732416 -0.363152,1.64884 -0.731192,4.022784 -0.878904,4.68748"
   id="path3863"
   inkscape:connector-curvature="0"
   sodipodi:nodetypes="cccc" /><path
   style="color:#000000;fill:#ffffff;stroke:none;stroke-width:1px;marker:none;visibility:visible;display:inline;overflow:visible;enable-background:accumulate"
   d="m 65.92673,45.681728 c 0.43399,-0.813248 1.45012,-2.923176 1.45012,-4.50572 0.61452,0.262208 0.88889,0.678912 1.34653,0.984008 -0.23397,1.546288 -1.36172,2.74724 -2.79665,3.521712 z"
   id="path3897"
   inkscape:connector-curvature="0"
   sodipodi:nodetypes="cccc" /><path
   style="color:#000000;fill:#000000;stroke:none;stroke-width:1px;marker:none;visibility:visible;display:inline;overflow:visible;enable-background:accumulate"
   d="m 186.1318,36.205572 c 0.73542,2.490624 1.27965,3.995768 -0.2856,6.082768 -1.25565,0.732824 -2.46514,1.025384 -3.44237,1.025384 -1.59826,-0.218816 -1.8616,-0.773808 -2.35111,-0.882592 0.4407,1.027256 1.01721,1.940912 1.79443,2.197256 3.35491,0.253544 4.63676,-0.09191 5.62662,-1.675672 0.44951,-2.647696 0.47652,-5.307248 -0.0822,-6.983112"
   id="path3959"
   inkscape:connector-curvature="0"
   sodipodi:nodetypes="ccccccc" /><path
   style="color:#000000;fill:#ffffff;stroke:none;stroke-width:1px;marker:none;visibility:visible;display:inline;overflow:visible;enable-background:accumulate"
   d="m 185.23563,41.278994 c 0.34443,-1.560487 -0.96951,-3.020454 -0.86499,-4.343264 0.49405,-0.10676 0.93441,0.01653 1.38535,0.109442 0.78103,1.295504 0.20415,2.908438 -0.52036,4.233822 z"
   id="path3999"
   inkscape:connector-curvature="0" /><path
   style="color:#000000;fill:#000000;fill-opacity:1;fill-rule:nonzero;stroke:none;stroke-width:1px;marker:none;visibility:visible;display:inline;overflow:visible;enable-background:accumulate"
   d="m 192.19683,38.875757 c 0.58675,0.131965 2.009,0.470004 3.10769,0.639934 1.19144,-0.620467 1.72211,-0.23509 2.79965,-0.893165 1.07017,-2.01834 1.45519,-3.308417 1.1243,-5.396691 0.49153,-0.186648 1.03953,-0.433626 1.46328,-0.544908 0.84019,2.021009 0.0558,5.92956 -0.81016,6.906 -0.37652,0.424533 -1.02693,1.486996 -2.4122,1.837201 -1.16368,0.294178 -1.79428,-0.06381 -2.74941,-0.02736 -1.08403,-0.271871 -2.367,-2.429811 -2.52315,-2.52101 z"
   id="path4001"
   inkscape:connector-curvature="0"
   sodipodi:nodetypes="cccccsscc" /><path
   style="color:#000000;fill:#583400;fill-opacity:1;fill-rule:nonzero;stroke:none;stroke-width:1px;marker:none;visibility:visible;display:inline;overflow:visible;enable-background:accumulate"
   d="m 188.77057,36.450299 c 1.4029,2.343298 3.91417,4.453792 6.25404,5.051977 -0.39832,-0.396404 -1.11243,-1.007843 -1.30627,-1.528374 -1.49405,-1.491891 -3.09041,-2.515484 -4.13119,-4.10906 -0.33528,0.254844 -0.65844,0.259586 -0.81658,0.585457 z"
   id="path4009"
   inkscape:connector-curvature="0"
   sodipodi:nodetypes="ccccc" /><path
   style="color:#000000;fill:#ffffff;stroke:none;stroke-width:1px;marker:none;visibility:visible;display:inline;overflow:visible;enable-background:accumulate"
   d="m 197.44941,37.869623 c 0.17127,-1.551296 -0.23837,-3.177877 -0.79022,-4.602987 0.57583,-0.324041 0.874,-0.202847 1.30059,-0.09486 0.86421,1.692158 0.29503,3.268514 -0.51037,4.697842 z"
   id="path4042"
   inkscape:connector-curvature="0" /><path
   style="color:#000000;fill:#000000;stroke:none;stroke-width:1px;marker:none;visibility:visible;display:inline;overflow:visible;enable-background:accumulate"
   d="m 215.25798,33.810858 c 0.98614,2.487728 -1.50708,5.994933 -2.06318,6.551779 -1.42825,1.081982 -3.18552,1.104829 -4.59565,1.481074 -0.94108,-0.443637 -2.32182,-0.986966 -3.24975,-2.141977 0.52682,1.009924 0.6067,2.226487 1.20257,3.137838 1.70685,0.523846 4.2369,0.766695 5.80554,0.517317 2.38666,-1.225223 3.38664,-4.262657 4.24391,-6.456236 0.14336,-1.605487 -0.37974,-3.673333 -1.34344,-3.089795 z"
   id="path4044"
   inkscape:connector-curvature="0"
   sodipodi:nodetypes="cccccccc" /><path
   style="color:#000000;fill:#ffffff;stroke:none;stroke-width:1px;marker:none;visibility:visible;display:inline;overflow:visible;enable-background:accumulate"
   d="m 213.97682,34.480275 c -0.59882,-0.764677 -1.32433,-0.444188 -1.91068,-0.343173 1.09969,1.676892 0.79015,4.360606 0.34958,5.932012 1.76119,-1.666884 1.33233,-3.688508 1.5611,-5.588839 z"
   id="path4101"
   inkscape:connector-curvature="0" /><path
   style="color:#000000;fill:#ffffff;stroke:none;stroke-width:1px;marker:none;visibility:visible;display:inline;overflow:visible;enable-background:accumulate"
   d="m 217.69805,40.223371 c 0.43237,-0.06276 0.83371,0.01765 1.19692,0.162776 0.1553,1.298569 -0.71515,2.969869 -0.95429,3.227103 0.40791,-1.261639 0.0978,-2.310752 -0.24263,-3.389879 z"
   id="path4196"
   inkscape:connector-curvature="0"
   sodipodi:nodetypes="cccc" /><path
   style="color:#000000;fill:#7e4aa7;fill-opacity:1;fill-rule:nonzero;stroke:none;stroke-width:1.25px;marker:none;visibility:visible;display:inline;overflow:visible;enable-background:accumulate"
   d="m 86.7425,172.27683 c -0.61825,-8.59128 -0.87116,-15.25987 1.75781,-20.11336 5.4703,10.37255 7.23777,16.07075 15.96674,18.08512 2.63712,6.50633 -0.11861,11.65826 2.7832,14.87375 -11.25973,0.91204 -17.95499,-6.71338 -20.50775,-12.84551 z"
   id="path5068"
   inkscape:connector-curvature="0"
   sodipodi:nodetypes="ccccc" /><path
   style="color:#000000;fill:#267fff;fill-opacity:1;fill-rule:nonzero;stroke:none;stroke-width:1.5625px;marker:none;visibility:visible;display:inline;overflow:visible;enable-background:accumulate"
   d="m 103.14869,171.76977 c -0.0969,4.85017 -1.04248,8.25238 1.0254,11.83139 -8.0481,-0.34337 -11.66049,-6.94467 -16.25972,-11.49335 0.26814,-4.99026 0.32456,-9.92466 1.17188,-13.18355 3.39693,7.09868 7.52012,12.09063 14.06244,12.84551 z"
   id="path4237"
   inkscape:connector-curvature="0"
   sodipodi:nodetypes="ccccc" /><path
   style="color:#000000;fill:#7e4aa7;fill-opacity:1;fill-rule:nonzero;stroke:none;stroke-width:1.25px;marker:none;visibility:visible;display:inline;overflow:visible;enable-background:accumulate"
   d="m 75.39215,157.72985 c -3.10412,-5.30625 -6.89914,-19.18968 -9.55699,-23.44225 -3.76425,1.72725 -2.88853,12.54513 -5.31758,15.6682 -3.8668,3.56177 -5.01115,5.07406 -5.01115,10.4831 3.13517,1.10937 2.64713,3.37161 8.79371,8.29196 3.13544,-5.55891 6.85602,-9.30661 11.09201,-11.00101 z"
   id="path5092"
   inkscape:connector-curvature="0"
   sodipodi:nodetypes="cccccc" /><path
   style="color:#000000;fill:#267fff;fill-opacity:1;fill-rule:nonzero;stroke:none;stroke-width:1.5625px;marker:none;visibility:visible;display:inline;overflow:visible;enable-background:accumulate"
   d="m 57.04361,159.20636 c 3.14621,1.12697 2.34674,3.53846 6.72606,4.99823 1.59949,-5.43787 6.01174,-4.17238 8.61741,-7.64661 -2.36406,-4.13253 -4.28267,-11.7459 -6.35948,-15.0688 -2.88005,3.65362 -1.04885,8.26993 -3.88829,10.70373 -4.00087,1.80732 -2.80741,3.96241 -5.0957,7.01345 z"
   id="path4252"
   inkscape:connector-curvature="0"
   sodipodi:nodetypes="cccccc" /><path
   style="color:#000000;fill:#000000;stroke:#000000;stroke-width:0.80000001px;stroke-linecap:butt;stroke-linejoin:miter;stroke-miterlimit:4;stroke-opacity:1;stroke-dasharray:none;stroke-dashoffset:0;marker:none;visibility:visible;display:inline;overflow:visible;enable-background:accumulate"
   d="m 139.49142,249.26213 c 11.92691,2.91311 21.254,-5.6988 26.3534,-10.28043 1.442,-1.29558 -1.02701,-0.12931 6.00518,-5.9567 3.96401,-3.30151 12.64827,-3.12488 16.70468,-0.43203 2.71226,1.80053 0.0447,6.08405 -1.90468,8.78203 -0.74338,-0.0743 -2.20975,-0.5888 -3.525,-0.6 2.21098,-1.74698 4.22086,-3.35771 3.96874,-5.56445 -0.29476,-2.57998 -9.7385,-2.99804 -11.59374,-2.04297 -2.66419,1.37152 -7.12317,4.47946 -8.25414,6.47513 -2.5325,4.46872 -13.23299,14.65385 -28.57044,10.20535 z"
   id="path5101"
   inkscape:connector-curvature="0"
   sodipodi:nodetypes="cscsccssscc" /><path
   style="color:#000000;fill:#000000;stroke:none;stroke-width:1px;marker:none;visibility:visible;display:inline;overflow:visible;enable-background:accumulate"
   d="m 146.36143,255.2881 c -2.45821,-0.27358 -7.01857,-2.40885 -8.20309,-4.541 -1.27684,-0.39029 -1.22325,0.002 -1.90429,0.58594 1.36782,2.59634 4.05357,3.91746 6.44529,4.98045 1.63652,0.0433 2.30844,-0.42376 3.66209,-1.02539 z"
   id="path5203"
   inkscape:connector-curvature="0" /><path
   style="color:#000000;fill:#6c60c2;fill-opacity:1;stroke:none;stroke-width:1px;marker:none;visibility:visible;display:inline;overflow:visible;enable-background:accumulate"
   d="m 117.78191,180.40711 c 0.0784,-0.92942 0.22084,-2.06308 0.45463,-3.04842 -0.40681,0.23545 -0.75879,0.79783 -0.98693,1.20849 -0.17453,0.75415 0.26763,1.2388 0.5323,1.83993 z"
   id="path5215"
   inkscape:connector-curvature="0"
   sodipodi:nodetypes="cccc" /><path
   style="color:#000000;fill:#69457a;fill-opacity:1;stroke:none;stroke-width:1px;marker:none;visibility:visible;display:inline;overflow:visible;enable-background:accumulate"
   d="m 119.89177,182.79539 c 0.0141,-1.18574 0.13877,-2.40523 -0.10358,-3.49581 0.25969,-1.01605 1.18529,-1.89492 2.17517,-1.99391 -1.2216,-0.56209 -2.72197,-0.33661 -3.78066,0.0518 -0.51684,1.14943 -0.40624,2.01666 -0.492,2.87431 0.58107,0.94961 1.42094,1.89547 2.20107,2.5636 z"
   id="path5217"
   inkscape:connector-curvature="0"
   sodipodi:nodetypes="cccccc" /></g></svg>